<svg width="1920" height="1080" viewBox="0 0 1920 1080" fill="none" xmlns="http://www.w3.org/2000/svg">
<rect width="1920" height="1080" fill="url(#paint0_linear_2173_19)"/>
<g filter="url(#filter0_d_2173_19)">
<rect x="237" y="72" width="1446" height="28" rx="14" fill="white"/>
</g>
<g filter="url(#filter1_d_2173_19)">
<rect x="237" y="72.1953" width="495" height="27.6096" rx="13.8048" fill="url(#paint1_linear_2173_19)"/>
</g>
<circle cx="1673" cy="125" r="10" fill="white"/>
<circle cx="1202" cy="125" r="10" fill="white"/>
<circle cx="728" cy="124" r="10" fill="white"/>
<circle cx="247" cy="125" r="10" fill="white"/>
<g filter="url(#filter2_d_2173_19)">
<path d="M603 285.442C603 272.495 613.495 262 626.442 262H1293.56C1306.5 262 1317 272.495 1317 285.442V617.535C1317 630.481 1306.5 640.977 1293.56 640.977H626.442C613.495 640.977 603 630.481 603 617.535V285.442Z" fill="#F9FCFF"/>
<path d="M766.445 428.797V444.852H752.773V428.797H766.445ZM756.25 431.688V441.961H763.008V431.688H756.25ZM781.133 425.359V451.375H777.617V438.602H773.516V450.203H770.078V425.984H773.516V435.516H777.617V425.359H781.133ZM782.148 456.57V459.578H757.93V448.133H761.602V456.57H782.148ZM815.177 427.625V430.32H786.7V427.625H799.161V424.812H802.872V427.625H815.177ZM800.997 431.57C808.497 431.57 812.481 433.016 812.481 436.062C812.481 438.836 809.161 440.301 802.872 440.516V442.703H816.973V445.398H785.059V442.703H799.161V440.516C792.813 440.301 789.473 438.855 789.513 436.062C789.473 433.016 793.458 431.57 800.997 431.57ZM800.997 434.031C795.88 434.031 793.458 434.695 793.458 436.062C793.458 437.43 795.88 438.133 800.997 438.133C806.075 438.133 808.575 437.43 808.614 436.062C808.575 434.695 806.075 434.031 800.997 434.031ZM812.95 447.43V454.812H792.677V457.273H813.927V459.969H788.927V452.273H809.161V450.047H788.888V447.43H812.95ZM859.787 445.008V448.055H845.491V460.32H841.858V448.055H827.756V445.008H859.787ZM857.248 438.328V441.297H844.827V427.352H856.936V430.359H848.537V438.328H857.248ZM842.756 427.391V430.398H834.358V438.25C837.287 438.23 840.022 438.055 843.186 437.43L843.459 440.438C839.631 441.258 836.389 441.297 832.717 441.297H830.647V427.391H842.756ZM890.589 425.359V446.453H886.839V437.625H880.003C878.792 440.438 876.937 442.957 874.144 445.242L871.488 443.094C875.902 439.598 877.777 435.75 878.206 430.594H873.206V427.586H881.722C881.722 430.105 881.507 432.43 880.98 434.578H886.839V425.359H890.589ZM871.956 427.586C871.956 434.695 869.886 439.617 863.909 443.719L861.488 441.414C865.863 438.484 867.894 435.379 868.402 430.594H862.659V427.586H871.956ZM878.988 446.727C886.136 446.727 890.784 449.305 890.784 453.445C890.784 457.703 886.136 460.281 878.988 460.242C871.722 460.281 867.113 457.703 867.113 453.445C867.113 449.305 871.722 446.727 878.988 446.727ZM878.988 449.617C873.909 449.617 870.784 451.023 870.823 453.445C870.784 455.906 873.909 457.391 878.988 457.391C883.988 457.391 887.073 455.906 887.073 453.445C887.073 451.023 883.988 449.617 878.988 449.617ZM927.25 443.602V446.57H895.336V443.602H927.25ZM923.656 456.57V459.578H899.359V449.422H903.109V456.57H923.656ZM911.273 426.492C918.852 426.453 923.773 429.109 923.773 433.484C923.773 437.898 918.852 440.555 911.273 440.594C903.656 440.555 898.773 437.898 898.773 433.484C898.773 429.109 903.656 426.453 911.273 426.492ZM911.273 429.461C905.922 429.461 902.562 430.984 902.602 433.484C902.562 436.062 905.922 437.547 911.273 437.547C916.625 437.547 919.945 436.062 919.945 433.484C919.945 430.984 916.625 429.461 911.273 429.461ZM937.642 449.266C939.673 449.266 942.212 449.246 944.908 449.148V443.484C941.138 442.84 938.619 439.988 938.619 436.062C938.619 431.609 941.939 428.562 946.627 428.562C951.392 428.562 954.712 431.609 954.712 436.062C954.712 439.949 952.232 442.781 948.462 443.484V448.992C950.962 448.875 953.423 448.68 955.572 448.367L955.845 451.102C950.103 452.117 942.759 452.312 938.111 452.312L937.642 449.266ZM967.955 425.32V460.32H964.439V442.781H960.611V458.523H957.173V426.023H960.611V439.695H964.439V425.32H967.955ZM946.627 431.57C943.931 431.531 941.939 433.406 941.978 436.062C941.939 438.797 943.931 440.555 946.627 440.555C949.361 440.555 951.314 438.797 951.314 436.062C951.314 433.406 949.361 431.531 946.627 431.57ZM1009.91 425.359V451.883H1006.2V448.523H999.167V445.906H1006.2V425.359H1009.91ZM1010.77 456.57V459.578H985.495V449.305H989.167V456.57H1010.77ZM980.652 441.336C987.136 441.297 995.847 441.219 1003.31 440.281L1003.54 442.938C1000.55 443.426 997.409 443.758 994.323 443.953V450.789H990.613V444.148C987.214 444.305 983.952 444.324 981.12 444.305L980.652 441.336ZM992.097 426.688C997.214 426.688 1000.77 429.148 1000.77 432.859C1000.77 436.57 997.214 438.953 992.097 438.953C986.902 438.953 983.386 436.57 983.386 432.859C983.386 429.148 986.902 426.688 992.097 426.688ZM992.097 429.461C988.972 429.422 986.863 430.75 986.902 432.859C986.863 434.93 988.972 436.219 992.097 436.219C995.105 436.219 997.214 434.93 997.253 432.859C997.214 430.75 995.105 429.422 992.097 429.461ZM1034.3 428.992V431.961H1014.62V428.992H1022.82V425.008H1026.49V428.992H1034.3ZM1024.62 433.562C1029.34 433.562 1032.66 436.18 1032.7 440.086C1032.66 443.992 1029.34 446.57 1024.62 446.57C1019.85 446.57 1016.57 443.992 1016.57 440.086C1016.57 436.18 1019.85 433.562 1024.62 433.562ZM1024.62 436.375C1021.84 436.375 1020.05 437.82 1020.05 440.086C1020.05 442.352 1021.84 443.758 1024.62 443.758C1027.35 443.758 1029.23 442.352 1029.27 440.086C1029.23 437.82 1027.35 436.375 1024.62 436.375ZM1043.76 425.32V447.859H1040.05V443.367H1034.38V440.359H1040.05V436.492H1034.42V433.484H1040.05V425.32H1043.76ZM1032.12 448.211C1039.46 448.211 1043.95 450.398 1043.95 454.227C1043.95 458.016 1039.46 460.281 1032.12 460.242C1024.73 460.281 1020.24 458.016 1020.24 454.227C1020.24 450.398 1024.73 448.211 1032.12 448.211ZM1032.12 451.062C1027.08 451.062 1024.11 452.156 1024.11 454.227C1024.11 456.258 1027.08 457.43 1032.12 457.391C1037.04 457.43 1040.01 456.258 1040.01 454.227C1040.01 452.156 1037.04 451.062 1032.12 451.062ZM1058.27 426.492C1063.54 426.531 1067.41 429.773 1067.45 434.344C1067.41 438.953 1063.54 442.156 1058.27 442.156C1052.96 442.156 1049.05 438.953 1049.05 434.344C1049.05 429.773 1052.96 426.531 1058.27 426.492ZM1058.27 429.617C1055.03 429.578 1052.65 431.492 1052.68 434.344C1052.65 437.234 1055.03 439.148 1058.27 439.148C1061.47 439.148 1063.86 437.234 1063.86 434.344C1063.86 431.492 1061.47 429.578 1058.27 429.617ZM1077.37 425.32V443.133H1073.66V425.32H1077.37ZM1077.37 444.734V453.562H1058.08V456.922H1078.54V459.891H1054.48V450.789H1073.7V447.703H1054.36V444.734H1077.37ZM1109.93 425.32V439.539H1115.01V442.586H1109.93V460.32H1106.22V425.32H1109.93ZM1092.67 429.07C1092.67 437.82 1091.06 445.789 1084.74 452.547L1081.81 450.477C1086.92 445.164 1088.78 439.129 1089.15 432.117H1083.06V429.07H1092.67ZM1102.31 429.07C1102.31 437.938 1101.22 447.234 1094.77 454.852L1091.81 452.82C1097 446.746 1098.56 439.598 1098.84 432.117H1093.8V429.07H1102.31ZM1147.92 452.859V455.945H1115.89V452.859H1123.55V443.719C1120.67 442.137 1118.94 439.617 1118.94 436.492C1118.94 430.984 1124.33 427.352 1131.83 427.352C1139.37 427.352 1144.76 430.984 1144.76 436.492C1144.76 439.578 1143.08 442.059 1140.26 443.641V452.859H1147.92ZM1131.83 430.32C1126.32 430.32 1122.53 432.703 1122.53 436.492C1122.53 440.242 1126.32 442.703 1131.83 442.703C1137.3 442.703 1141.16 440.242 1141.16 436.492C1141.16 432.703 1137.3 430.32 1131.83 430.32ZM1127.22 452.859H1136.51V445.047C1135.09 445.418 1133.51 445.594 1131.83 445.594C1130.19 445.594 1128.62 445.418 1127.22 445.086V452.859ZM1155.4 448.602C1155.44 443.484 1156.96 441.922 1159.54 440.32C1161.18 439.305 1162.43 437.898 1162.43 435.828C1162.43 433.367 1160.56 431.844 1158.21 431.844C1156.1 431.844 1154.07 433.133 1153.88 436.023H1149.66C1149.82 431.062 1153.57 428.328 1158.21 428.328C1163.29 428.328 1166.69 431.375 1166.69 435.828C1166.69 438.953 1165.21 441.062 1162.71 442.586C1160.36 443.992 1159.46 445.438 1159.39 448.602V448.836H1155.4V448.602ZM1157.55 457.273C1156.03 457.273 1154.74 456.023 1154.78 454.5C1154.74 452.977 1156.03 451.727 1157.55 451.727C1159.03 451.727 1160.32 452.977 1160.32 454.5C1160.32 456.023 1159.03 457.273 1157.55 457.273Z" fill="black"/>
<path d="M860.832 560.24C859.621 560.24 858.542 560.017 857.593 559.572C856.651 559.126 855.902 558.512 855.348 557.729C854.794 556.946 854.505 556.05 854.482 555.038H858.082C858.122 555.718 858.407 556.269 858.939 556.692C859.47 557.115 860.101 557.326 860.832 557.326C861.415 557.326 861.929 557.198 862.375 556.941C862.826 556.678 863.178 556.315 863.429 555.852C863.686 555.384 863.815 554.847 863.815 554.241C863.815 553.624 863.683 553.082 863.42 552.613C863.163 552.145 862.806 551.779 862.349 551.516C861.892 551.254 861.369 551.119 860.781 551.114C860.267 551.114 859.767 551.219 859.281 551.431C858.801 551.642 858.427 551.931 858.159 552.296L854.86 551.705L855.691 542.45H866.42V545.483H858.75L858.296 549.88H858.399C858.707 549.445 859.173 549.085 859.796 548.8C860.418 548.514 861.115 548.371 861.886 548.371C862.943 548.371 863.886 548.62 864.714 549.117C865.543 549.614 866.197 550.297 866.677 551.165C867.157 552.028 867.394 553.022 867.388 554.147C867.394 555.33 867.119 556.381 866.565 557.301C866.017 558.215 865.248 558.935 864.26 559.46C863.278 559.98 862.135 560.24 860.832 560.24ZM869.543 557.008H889.789V559.614H869.543V557.008ZM878.061 552.688H881.246V558.335H878.061V552.688ZM878.037 544.435H880.86V544.918C880.86 545.996 880.651 547.009 880.233 547.958C879.815 548.892 879.195 549.736 878.375 550.492C877.57 551.248 876.581 551.884 875.407 552.399C874.232 552.913 872.873 553.267 871.328 553.46L870.17 550.902C871.538 550.742 872.712 550.468 873.693 550.082C874.691 549.68 875.503 549.197 876.131 548.634C876.774 548.071 877.249 547.476 877.554 546.848C877.876 546.205 878.037 545.561 878.037 544.918V544.435ZM878.447 544.435H881.271V544.918C881.271 545.561 881.423 546.205 881.729 546.848C882.051 547.476 882.525 548.071 883.153 548.634C883.796 549.197 884.617 549.68 885.614 550.082C886.612 550.468 887.786 550.742 889.137 550.902L887.979 553.46C886.435 553.267 885.075 552.913 883.901 552.399C882.727 551.884 881.729 551.248 880.909 550.492C880.104 549.736 879.493 548.892 879.075 547.958C878.656 547.009 878.447 545.996 878.447 544.918V544.435ZM871.256 542.818H888.027V545.376H871.256V542.818ZM878.061 540.092H881.246V543.856H878.061V540.092Z" fill="#5B59DE"/>
<path d="M898.746 550.806H918.485V552.423H898.746V550.806ZM907.626 547.307H909.581V551.482H907.626V547.307ZM901.231 546.68H916.169V548.296H901.231V546.68ZM901.231 541.057H916.024V542.65H903.21V547.645H901.231V541.057ZM908.591 553.991C910.924 553.991 912.75 554.337 914.069 555.029C915.388 555.705 916.048 556.67 916.048 557.925C916.048 559.18 915.388 560.145 914.069 560.82C912.75 561.512 910.924 561.858 908.591 561.858C906.259 561.858 904.425 561.512 903.089 560.82C901.77 560.145 901.111 559.18 901.111 557.925C901.111 556.67 901.77 555.705 903.089 555.029C904.425 554.337 906.259 553.991 908.591 553.991ZM908.567 555.56C907.441 555.56 906.468 555.656 905.647 555.849C904.843 556.026 904.224 556.292 903.789 556.646C903.355 556.984 903.138 557.41 903.138 557.925C903.138 558.423 903.355 558.85 903.789 559.204C904.224 559.558 904.843 559.823 905.647 560C906.468 560.193 907.441 560.29 908.567 560.29C909.726 560.29 910.707 560.193 911.511 560C912.332 559.823 912.959 559.558 913.394 559.204C913.828 558.85 914.045 558.423 914.045 557.925C914.045 557.41 913.828 556.984 913.394 556.646C912.959 556.292 912.332 556.026 911.511 555.849C910.707 555.656 909.726 555.56 908.567 555.56ZM935.882 540.043H937.885V556.115H935.882V540.043ZM937.258 546.68H941.094V548.345H937.258V546.68ZM924.299 559.759H938.85V561.4H924.299V559.759ZM924.299 554.474H926.278V560.41H924.299V554.474ZM927.026 541.588C928.12 541.588 929.093 541.821 929.946 542.288C930.798 542.738 931.474 543.365 931.973 544.17C932.471 544.974 932.721 545.907 932.721 546.969C932.721 547.999 932.471 548.924 931.973 549.744C931.474 550.565 930.798 551.208 929.946 551.675C929.093 552.125 928.12 552.35 927.026 552.35C925.948 552.35 924.975 552.125 924.106 551.675C923.253 551.208 922.578 550.565 922.079 549.744C921.58 548.924 921.331 547.999 921.331 546.969C921.331 545.907 921.58 544.974 922.079 544.17C922.578 543.365 923.253 542.738 924.106 542.288C924.975 541.821 925.948 541.588 927.026 541.588ZM927.026 543.325C926.318 543.325 925.683 543.478 925.119 543.784C924.556 544.089 924.106 544.516 923.768 545.063C923.446 545.61 923.285 546.245 923.285 546.969C923.285 547.677 923.446 548.304 923.768 548.851C924.106 549.398 924.556 549.825 925.119 550.13C925.683 550.436 926.318 550.589 927.026 550.589C927.734 550.589 928.369 550.436 928.932 550.13C929.511 549.825 929.962 549.398 930.284 548.851C930.621 548.304 930.79 547.677 930.79 546.969C930.79 546.245 930.621 545.61 930.284 545.063C929.962 544.516 929.511 544.089 928.932 543.784C928.369 543.478 927.734 543.325 927.026 543.325ZM954.491 541.419H956.084V544.339C956.084 545.417 955.883 546.486 955.481 547.548C955.079 548.61 954.499 549.567 953.743 550.42C953.003 551.273 952.094 551.94 951.017 552.423L949.931 550.878C950.88 550.46 951.692 549.897 952.368 549.189C953.06 548.465 953.583 547.677 953.936 546.824C954.306 545.972 954.491 545.143 954.491 544.339V541.419ZM954.829 541.419H956.422V544.339C956.422 545.127 956.591 545.915 956.929 546.704C957.283 547.476 957.789 548.176 958.449 548.803C959.125 549.414 959.921 549.905 960.838 550.275L959.776 551.819C958.731 551.401 957.838 550.806 957.098 550.034C956.358 549.262 955.795 548.385 955.408 547.403C955.022 546.422 954.829 545.401 954.829 544.339V541.419ZM966.412 540.068H968.319V553.533H966.412V540.068ZM962.937 545.907H967.04V547.548H962.937V545.907ZM961.731 540.478H963.613V552.833H961.731V540.478ZM961.152 554.015C962.648 554.015 963.935 554.168 965.013 554.474C966.107 554.78 966.951 555.23 967.546 555.825C968.142 556.404 968.439 557.104 968.439 557.925C968.439 558.745 968.142 559.445 967.546 560.024C966.951 560.619 966.107 561.07 965.013 561.375C963.935 561.681 962.648 561.834 961.152 561.834C959.656 561.834 958.361 561.681 957.267 561.375C956.173 561.07 955.328 560.619 954.733 560.024C954.154 559.445 953.864 558.745 953.864 557.925C953.864 557.104 954.154 556.404 954.733 555.825C955.328 555.23 956.173 554.78 957.267 554.474C958.361 554.168 959.656 554.015 961.152 554.015ZM961.152 555.56C959.511 555.56 958.216 555.769 957.267 556.187C956.317 556.606 955.843 557.185 955.843 557.925C955.843 558.665 956.317 559.244 957.267 559.662C958.216 560.08 959.511 560.29 961.152 560.29C962.246 560.29 963.187 560.193 963.975 560C964.763 559.823 965.367 559.558 965.785 559.204C966.219 558.85 966.436 558.423 966.436 557.925C966.436 557.185 965.962 556.606 965.013 556.187C964.08 555.769 962.793 555.56 961.152 555.56ZM987.067 540.043H989.07V552.833H987.067V540.043ZM988.515 545.569H992.279V547.259H988.515V545.569ZM981.01 541.443H983.109C983.109 543.277 982.699 544.934 981.879 546.414C981.074 547.878 979.908 549.133 978.38 550.179C976.851 551.224 975.025 552.037 972.902 552.616L972.081 551.047C973.964 550.532 975.572 549.857 976.908 549.02C978.243 548.168 979.256 547.178 979.948 546.052C980.656 544.91 981.01 543.671 981.01 542.336V541.443ZM973.071 541.443H982.144V543.06H973.071V541.443ZM974.881 553.847H989.07V561.882H987.067V555.487H974.881V553.847ZM1009.12 540.043H1011.1V561.882H1009.12V540.043ZM1010.64 549.02H1014.67V550.709H1010.64V549.02ZM994.208 543.542H1007.07V545.183H994.208V543.542ZM1000.75 546.969C1001.78 546.969 1002.69 547.186 1003.47 547.621C1004.28 548.055 1004.91 548.65 1005.36 549.406C1005.82 550.146 1006.06 551.007 1006.06 551.988C1006.06 552.97 1005.82 553.838 1005.36 554.595C1004.91 555.351 1004.28 555.946 1003.47 556.38C1002.69 556.799 1001.78 557.008 1000.75 557.008C999.718 557.008 998.801 556.799 997.996 556.38C997.208 555.946 996.581 555.351 996.114 554.595C995.648 553.838 995.414 552.97 995.414 551.988C995.414 551.007 995.648 550.146 996.114 549.406C996.581 548.65 997.208 548.055 997.996 547.621C998.801 547.186 999.718 546.969 1000.75 546.969ZM1000.75 548.634C1000.09 548.634 999.501 548.779 998.986 549.069C998.471 549.358 998.061 549.752 997.755 550.251C997.466 550.75 997.321 551.329 997.321 551.988C997.321 552.648 997.466 553.235 997.755 553.75C998.061 554.249 998.471 554.643 998.986 554.932C999.501 555.206 1000.09 555.343 1000.75 555.343C1001.39 555.343 1001.97 555.206 1002.48 554.932C1003 554.643 1003.4 554.249 1003.69 553.75C1004 553.235 1004.15 552.648 1004.15 551.988C1004.15 551.329 1004 550.75 1003.69 550.251C1003.4 549.752 1003 549.358 1002.48 549.069C1001.97 548.779 1001.39 548.634 1000.75 548.634ZM999.71 540.309H1001.71V544.266H999.71V540.309ZM1025.12 547.862H1029.32V549.527H1025.12V547.862ZM1021.06 542.095H1022.63V546.269C1022.63 547.395 1022.51 548.505 1022.27 549.599C1022.05 550.693 1021.71 551.723 1021.26 552.688C1020.82 553.653 1020.29 554.522 1019.66 555.294C1019.04 556.067 1018.33 556.694 1017.54 557.177L1016.29 555.68C1017.03 555.23 1017.69 554.667 1018.29 553.991C1018.88 553.316 1019.38 552.56 1019.79 551.723C1020.2 550.87 1020.52 549.985 1020.73 549.069C1020.95 548.135 1021.06 547.202 1021.06 546.269V542.095ZM1021.45 542.095H1022.99V546.197C1022.99 547.066 1023.09 547.942 1023.28 548.827C1023.49 549.696 1023.78 550.532 1024.15 551.337C1024.54 552.125 1025.01 552.849 1025.58 553.509C1026.14 554.168 1026.78 554.715 1027.48 555.15L1026.35 556.694C1025.56 556.211 1024.86 555.6 1024.25 554.86C1023.64 554.104 1023.12 553.259 1022.71 552.326C1022.29 551.377 1021.97 550.38 1021.76 549.334C1021.55 548.288 1021.45 547.243 1021.45 546.197V542.095ZM1033.15 540.043H1035.08V561.882H1033.15V540.043ZM1028.71 540.502H1030.6V560.772H1028.71V540.502ZM1043.58 551.289H1045.56V557.804H1043.58V551.289ZM1051.64 551.289H1053.64V557.804H1051.64V551.289ZM1038.73 557.418H1058.51V559.083H1038.73V557.418ZM1048.57 541.419C1050.12 541.419 1051.48 541.652 1052.67 542.119C1053.86 542.585 1054.8 543.237 1055.47 544.073C1056.17 544.91 1056.51 545.899 1056.51 547.041C1056.51 548.168 1056.17 549.157 1055.47 550.01C1054.8 550.846 1053.86 551.498 1052.67 551.964C1051.48 552.415 1050.12 552.64 1048.57 552.64C1047.04 552.64 1045.68 552.415 1044.47 551.964C1043.28 551.498 1042.35 550.846 1041.67 550.01C1040.99 549.157 1040.66 548.168 1040.66 547.041C1040.66 545.899 1040.99 544.91 1041.67 544.073C1042.35 543.237 1043.28 542.585 1044.47 542.119C1045.68 541.652 1047.04 541.419 1048.57 541.419ZM1048.57 543.012C1047.41 543.012 1046.38 543.18 1045.48 543.518C1044.58 543.856 1043.87 544.331 1043.36 544.942C1042.84 545.537 1042.59 546.237 1042.59 547.041C1042.59 547.846 1042.84 548.554 1043.36 549.165C1043.87 549.76 1044.58 550.227 1045.48 550.565C1046.38 550.902 1047.41 551.071 1048.57 551.071C1049.75 551.071 1050.78 550.902 1051.68 550.565C1052.59 550.227 1053.29 549.76 1053.81 549.165C1054.32 548.554 1054.58 547.846 1054.58 547.041C1054.58 546.237 1054.32 545.537 1053.81 544.942C1053.29 544.331 1052.59 543.856 1051.68 543.518C1050.78 543.18 1049.75 543.012 1048.57 543.012ZM1064.24 542.45L1064.07 555.064H1062.08L1061.91 542.45H1064.24ZM1063.08 560.137C1062.66 560.137 1062.29 559.986 1061.99 559.683C1061.69 559.38 1061.54 559.017 1061.54 558.595C1061.54 558.172 1061.69 557.809 1061.99 557.506C1062.29 557.204 1062.66 557.052 1063.08 557.052C1063.5 557.052 1063.86 557.204 1064.17 557.506C1064.47 557.809 1064.62 558.172 1064.62 558.595C1064.62 558.875 1064.55 559.132 1064.41 559.366C1064.27 559.6 1064.08 559.789 1063.85 559.931C1063.62 560.069 1063.36 560.137 1063.08 560.137Z" fill="#6A6A6A"/>
<path d="M920.371 321.789V343H916.533V325.51H916.416L911.465 328.674V325.188L916.709 321.789H920.371ZM946.826 319.152V338.693H943.574V328.938H938.242V334.387H925.85V320.881H929.102V325.158H935.02V320.881H938.242V326.301H943.574V319.152H946.826ZM947.412 342.443V345.08H929.365V336.76H932.676V342.443H947.412ZM929.102 331.809H935.02V327.678H929.102V331.809ZM979.697 319.123V332.775H976.475V319.123H979.697ZM979.756 333.889V340.715H965.43V342.854H980.547V345.373H962.236V338.342H976.504V336.379H962.178V333.889H979.756ZM973.311 320.441V323.078H967.773C967.905 326.008 970.146 328.776 974.248 329.904L972.666 332.424C969.575 331.53 967.363 329.641 966.162 327.238C964.976 329.89 962.661 331.999 959.395 332.98L957.9 330.402C962.002 329.187 964.287 326.213 964.463 323.078H958.75V320.441H973.311ZM1007.79 332.365V334.973H997.568V339.836H994.346V334.973H983.594V332.365H1007.79ZM1004.69 320.324V329.904H986.67V320.324H1004.69ZM989.834 322.873V327.355H1001.46V322.873H989.834ZM1005.13 342.443V345.08H986.523V337.404H989.775V342.443H1005.13Z" fill="#292A2E" fill-opacity="0.7"/>
</g>
<g filter="url(#filter3_d_2173_19)">
<path d="M603 285.442C603 272.495 613.495 262 626.442 262H1293.56C1306.5 262 1317 272.495 1317 285.442V617.535C1317 630.481 1306.5 640.977 1293.56 640.977H626.442C613.495 640.977 603 630.481 603 617.535V285.442Z" fill="#F9FCFF"/>
<path d="M766.445 428.797V444.852H752.773V428.797H766.445ZM756.25 431.688V441.961H763.008V431.688H756.25ZM781.133 425.359V451.375H777.617V438.602H773.516V450.203H770.078V425.984H773.516V435.516H777.617V425.359H781.133ZM782.148 456.57V459.578H757.93V448.133H761.602V456.57H782.148ZM815.177 427.625V430.32H786.7V427.625H799.161V424.812H802.872V427.625H815.177ZM800.997 431.57C808.497 431.57 812.481 433.016 812.481 436.062C812.481 438.836 809.161 440.301 802.872 440.516V442.703H816.973V445.398H785.059V442.703H799.161V440.516C792.813 440.301 789.473 438.855 789.513 436.062C789.473 433.016 793.458 431.57 800.997 431.57ZM800.997 434.031C795.88 434.031 793.458 434.695 793.458 436.062C793.458 437.43 795.88 438.133 800.997 438.133C806.075 438.133 808.575 437.43 808.614 436.062C808.575 434.695 806.075 434.031 800.997 434.031ZM812.95 447.43V454.812H792.677V457.273H813.927V459.969H788.927V452.273H809.161V450.047H788.888V447.43H812.95ZM859.787 445.008V448.055H845.491V460.32H841.858V448.055H827.756V445.008H859.787ZM857.248 438.328V441.297H844.827V427.352H856.936V430.359H848.537V438.328H857.248ZM842.756 427.391V430.398H834.358V438.25C837.287 438.23 840.022 438.055 843.186 437.43L843.459 440.438C839.631 441.258 836.389 441.297 832.717 441.297H830.647V427.391H842.756ZM890.589 425.359V446.453H886.839V437.625H880.003C878.792 440.438 876.937 442.957 874.144 445.242L871.488 443.094C875.902 439.598 877.777 435.75 878.206 430.594H873.206V427.586H881.722C881.722 430.105 881.507 432.43 880.98 434.578H886.839V425.359H890.589ZM871.956 427.586C871.956 434.695 869.886 439.617 863.909 443.719L861.488 441.414C865.863 438.484 867.894 435.379 868.402 430.594H862.659V427.586H871.956ZM878.988 446.727C886.136 446.727 890.784 449.305 890.784 453.445C890.784 457.703 886.136 460.281 878.988 460.242C871.722 460.281 867.113 457.703 867.113 453.445C867.113 449.305 871.722 446.727 878.988 446.727ZM878.988 449.617C873.909 449.617 870.784 451.023 870.823 453.445C870.784 455.906 873.909 457.391 878.988 457.391C883.988 457.391 887.073 455.906 887.073 453.445C887.073 451.023 883.988 449.617 878.988 449.617ZM927.25 443.602V446.57H895.336V443.602H927.25ZM923.656 456.57V459.578H899.359V449.422H903.109V456.57H923.656ZM911.273 426.492C918.852 426.453 923.773 429.109 923.773 433.484C923.773 437.898 918.852 440.555 911.273 440.594C903.656 440.555 898.773 437.898 898.773 433.484C898.773 429.109 903.656 426.453 911.273 426.492ZM911.273 429.461C905.922 429.461 902.562 430.984 902.602 433.484C902.562 436.062 905.922 437.547 911.273 437.547C916.625 437.547 919.945 436.062 919.945 433.484C919.945 430.984 916.625 429.461 911.273 429.461ZM937.642 449.266C939.673 449.266 942.212 449.246 944.908 449.148V443.484C941.138 442.84 938.619 439.988 938.619 436.062C938.619 431.609 941.939 428.562 946.627 428.562C951.392 428.562 954.712 431.609 954.712 436.062C954.712 439.949 952.232 442.781 948.462 443.484V448.992C950.962 448.875 953.423 448.68 955.572 448.367L955.845 451.102C950.103 452.117 942.759 452.312 938.111 452.312L937.642 449.266ZM967.955 425.32V460.32H964.439V442.781H960.611V458.523H957.173V426.023H960.611V439.695H964.439V425.32H967.955ZM946.627 431.57C943.931 431.531 941.939 433.406 941.978 436.062C941.939 438.797 943.931 440.555 946.627 440.555C949.361 440.555 951.314 438.797 951.314 436.062C951.314 433.406 949.361 431.531 946.627 431.57ZM1009.91 425.359V451.883H1006.2V448.523H999.167V445.906H1006.2V425.359H1009.91ZM1010.77 456.57V459.578H985.495V449.305H989.167V456.57H1010.77ZM980.652 441.336C987.136 441.297 995.847 441.219 1003.31 440.281L1003.54 442.938C1000.55 443.426 997.409 443.758 994.323 443.953V450.789H990.613V444.148C987.214 444.305 983.952 444.324 981.12 444.305L980.652 441.336ZM992.097 426.688C997.214 426.688 1000.77 429.148 1000.77 432.859C1000.77 436.57 997.214 438.953 992.097 438.953C986.902 438.953 983.386 436.57 983.386 432.859C983.386 429.148 986.902 426.688 992.097 426.688ZM992.097 429.461C988.972 429.422 986.863 430.75 986.902 432.859C986.863 434.93 988.972 436.219 992.097 436.219C995.105 436.219 997.214 434.93 997.253 432.859C997.214 430.75 995.105 429.422 992.097 429.461ZM1034.3 428.992V431.961H1014.62V428.992H1022.82V425.008H1026.49V428.992H1034.3ZM1024.62 433.562C1029.34 433.562 1032.66 436.18 1032.7 440.086C1032.66 443.992 1029.34 446.57 1024.62 446.57C1019.85 446.57 1016.57 443.992 1016.57 440.086C1016.57 436.18 1019.85 433.562 1024.62 433.562ZM1024.62 436.375C1021.84 436.375 1020.05 437.82 1020.05 440.086C1020.05 442.352 1021.84 443.758 1024.62 443.758C1027.35 443.758 1029.23 442.352 1029.27 440.086C1029.23 437.82 1027.35 436.375 1024.62 436.375ZM1043.76 425.32V447.859H1040.05V443.367H1034.38V440.359H1040.05V436.492H1034.42V433.484H1040.05V425.32H1043.76ZM1032.12 448.211C1039.46 448.211 1043.95 450.398 1043.95 454.227C1043.95 458.016 1039.46 460.281 1032.12 460.242C1024.73 460.281 1020.24 458.016 1020.24 454.227C1020.24 450.398 1024.73 448.211 1032.12 448.211ZM1032.12 451.062C1027.08 451.062 1024.11 452.156 1024.11 454.227C1024.11 456.258 1027.08 457.43 1032.12 457.391C1037.04 457.43 1040.01 456.258 1040.01 454.227C1040.01 452.156 1037.04 451.062 1032.12 451.062ZM1058.27 426.492C1063.54 426.531 1067.41 429.773 1067.45 434.344C1067.41 438.953 1063.54 442.156 1058.27 442.156C1052.96 442.156 1049.05 438.953 1049.05 434.344C1049.05 429.773 1052.96 426.531 1058.27 426.492ZM1058.27 429.617C1055.03 429.578 1052.65 431.492 1052.68 434.344C1052.65 437.234 1055.03 439.148 1058.27 439.148C1061.47 439.148 1063.86 437.234 1063.86 434.344C1063.86 431.492 1061.47 429.578 1058.27 429.617ZM1077.37 425.32V443.133H1073.66V425.32H1077.37ZM1077.37 444.734V453.562H1058.08V456.922H1078.54V459.891H1054.48V450.789H1073.7V447.703H1054.36V444.734H1077.37ZM1109.93 425.32V439.539H1115.01V442.586H1109.93V460.32H1106.22V425.32H1109.93ZM1092.67 429.07C1092.67 437.82 1091.06 445.789 1084.74 452.547L1081.81 450.477C1086.92 445.164 1088.78 439.129 1089.15 432.117H1083.06V429.07H1092.67ZM1102.31 429.07C1102.31 437.938 1101.22 447.234 1094.77 454.852L1091.81 452.82C1097 446.746 1098.56 439.598 1098.84 432.117H1093.8V429.07H1102.31ZM1147.92 452.859V455.945H1115.89V452.859H1123.55V443.719C1120.67 442.137 1118.94 439.617 1118.94 436.492C1118.94 430.984 1124.33 427.352 1131.83 427.352C1139.37 427.352 1144.76 430.984 1144.76 436.492C1144.76 439.578 1143.08 442.059 1140.26 443.641V452.859H1147.92ZM1131.83 430.32C1126.32 430.32 1122.53 432.703 1122.53 436.492C1122.53 440.242 1126.32 442.703 1131.83 442.703C1137.3 442.703 1141.16 440.242 1141.16 436.492C1141.16 432.703 1137.3 430.32 1131.83 430.32ZM1127.22 452.859H1136.51V445.047C1135.09 445.418 1133.51 445.594 1131.83 445.594C1130.19 445.594 1128.62 445.418 1127.22 445.086V452.859ZM1155.4 448.602C1155.44 443.484 1156.96 441.922 1159.54 440.32C1161.18 439.305 1162.43 437.898 1162.43 435.828C1162.43 433.367 1160.56 431.844 1158.21 431.844C1156.1 431.844 1154.07 433.133 1153.88 436.023H1149.66C1149.82 431.062 1153.57 428.328 1158.21 428.328C1163.29 428.328 1166.69 431.375 1166.69 435.828C1166.69 438.953 1165.21 441.062 1162.71 442.586C1160.36 443.992 1159.46 445.438 1159.39 448.602V448.836H1155.4V448.602ZM1157.55 457.273C1156.03 457.273 1154.74 456.023 1154.78 454.5C1154.74 452.977 1156.03 451.727 1157.55 451.727C1159.03 451.727 1160.32 452.977 1160.32 454.5C1160.32 456.023 1159.03 457.273 1157.55 457.273Z" fill="black"/>
<path d="M860.832 560.24C859.621 560.24 858.542 560.017 857.593 559.572C856.651 559.126 855.902 558.512 855.348 557.729C854.794 556.946 854.505 556.05 854.482 555.038H858.082C858.122 555.718 858.407 556.269 858.939 556.692C859.47 557.115 860.101 557.326 860.832 557.326C861.415 557.326 861.929 557.198 862.375 556.941C862.826 556.678 863.178 556.315 863.429 555.852C863.686 555.384 863.815 554.847 863.815 554.241C863.815 553.624 863.683 553.082 863.42 552.613C863.163 552.145 862.806 551.779 862.349 551.516C861.892 551.254 861.369 551.119 860.781 551.114C860.267 551.114 859.767 551.219 859.281 551.431C858.801 551.642 858.427 551.931 858.159 552.296L854.86 551.705L855.691 542.45H866.42V545.483H858.75L858.296 549.88H858.399C858.707 549.445 859.173 549.085 859.796 548.8C860.418 548.514 861.115 548.371 861.886 548.371C862.943 548.371 863.886 548.62 864.714 549.117C865.543 549.614 866.197 550.297 866.677 551.165C867.157 552.028 867.394 553.022 867.388 554.147C867.394 555.33 867.119 556.381 866.565 557.301C866.017 558.215 865.248 558.935 864.26 559.46C863.278 559.98 862.135 560.24 860.832 560.24ZM869.543 557.008H889.789V559.614H869.543V557.008ZM878.061 552.688H881.246V558.335H878.061V552.688ZM878.037 544.435H880.86V544.918C880.86 545.996 880.651 547.009 880.233 547.958C879.815 548.892 879.195 549.736 878.375 550.492C877.57 551.248 876.581 551.884 875.407 552.399C874.232 552.913 872.873 553.267 871.328 553.46L870.17 550.902C871.538 550.742 872.712 550.468 873.693 550.082C874.691 549.68 875.503 549.197 876.131 548.634C876.774 548.071 877.249 547.476 877.554 546.848C877.876 546.205 878.037 545.561 878.037 544.918V544.435ZM878.447 544.435H881.271V544.918C881.271 545.561 881.423 546.205 881.729 546.848C882.051 547.476 882.525 548.071 883.153 548.634C883.796 549.197 884.617 549.68 885.614 550.082C886.612 550.468 887.786 550.742 889.137 550.902L887.979 553.46C886.435 553.267 885.075 552.913 883.901 552.399C882.727 551.884 881.729 551.248 880.909 550.492C880.104 549.736 879.493 548.892 879.075 547.958C878.656 547.009 878.447 545.996 878.447 544.918V544.435ZM871.256 542.818H888.027V545.376H871.256V542.818ZM878.061 540.092H881.246V543.856H878.061V540.092Z" fill="#5B59DE"/>
<path d="M898.746 550.806H918.485V552.423H898.746V550.806ZM907.626 547.307H909.581V551.482H907.626V547.307ZM901.231 546.68H916.169V548.296H901.231V546.68ZM901.231 541.057H916.024V542.65H903.21V547.645H901.231V541.057ZM908.591 553.991C910.924 553.991 912.75 554.337 914.069 555.029C915.388 555.705 916.048 556.67 916.048 557.925C916.048 559.18 915.388 560.145 914.069 560.82C912.75 561.512 910.924 561.858 908.591 561.858C906.259 561.858 904.425 561.512 903.089 560.82C901.77 560.145 901.111 559.18 901.111 557.925C901.111 556.67 901.77 555.705 903.089 555.029C904.425 554.337 906.259 553.991 908.591 553.991ZM908.567 555.56C907.441 555.56 906.468 555.656 905.647 555.849C904.843 556.026 904.224 556.292 903.789 556.646C903.355 556.984 903.138 557.41 903.138 557.925C903.138 558.423 903.355 558.85 903.789 559.204C904.224 559.558 904.843 559.823 905.647 560C906.468 560.193 907.441 560.29 908.567 560.29C909.726 560.29 910.707 560.193 911.511 560C912.332 559.823 912.959 559.558 913.394 559.204C913.828 558.85 914.045 558.423 914.045 557.925C914.045 557.41 913.828 556.984 913.394 556.646C912.959 556.292 912.332 556.026 911.511 555.849C910.707 555.656 909.726 555.56 908.567 555.56ZM935.882 540.043H937.885V556.115H935.882V540.043ZM937.258 546.68H941.094V548.345H937.258V546.68ZM924.299 559.759H938.85V561.4H924.299V559.759ZM924.299 554.474H926.278V560.41H924.299V554.474ZM927.026 541.588C928.12 541.588 929.093 541.821 929.946 542.288C930.798 542.738 931.474 543.365 931.973 544.17C932.471 544.974 932.721 545.907 932.721 546.969C932.721 547.999 932.471 548.924 931.973 549.744C931.474 550.565 930.798 551.208 929.946 551.675C929.093 552.125 928.12 552.35 927.026 552.35C925.948 552.35 924.975 552.125 924.106 551.675C923.253 551.208 922.578 550.565 922.079 549.744C921.58 548.924 921.331 547.999 921.331 546.969C921.331 545.907 921.58 544.974 922.079 544.17C922.578 543.365 923.253 542.738 924.106 542.288C924.975 541.821 925.948 541.588 927.026 541.588ZM927.026 543.325C926.318 543.325 925.683 543.478 925.119 543.784C924.556 544.089 924.106 544.516 923.768 545.063C923.446 545.61 923.285 546.245 923.285 546.969C923.285 547.677 923.446 548.304 923.768 548.851C924.106 549.398 924.556 549.825 925.119 550.13C925.683 550.436 926.318 550.589 927.026 550.589C927.734 550.589 928.369 550.436 928.932 550.13C929.511 549.825 929.962 549.398 930.284 548.851C930.621 548.304 930.79 547.677 930.79 546.969C930.79 546.245 930.621 545.61 930.284 545.063C929.962 544.516 929.511 544.089 928.932 543.784C928.369 543.478 927.734 543.325 927.026 543.325ZM954.491 541.419H956.084V544.339C956.084 545.417 955.883 546.486 955.481 547.548C955.079 548.61 954.499 549.567 953.743 550.42C953.003 551.273 952.094 551.94 951.017 552.423L949.931 550.878C950.88 550.46 951.692 549.897 952.368 549.189C953.06 548.465 953.583 547.677 953.936 546.824C954.306 545.972 954.491 545.143 954.491 544.339V541.419ZM954.829 541.419H956.422V544.339C956.422 545.127 956.591 545.915 956.929 546.704C957.283 547.476 957.789 548.176 958.449 548.803C959.125 549.414 959.921 549.905 960.838 550.275L959.776 551.819C958.731 551.401 957.838 550.806 957.098 550.034C956.358 549.262 955.795 548.385 955.408 547.403C955.022 546.422 954.829 545.401 954.829 544.339V541.419ZM966.412 540.068H968.319V553.533H966.412V540.068ZM962.937 545.907H967.04V547.548H962.937V545.907ZM961.731 540.478H963.613V552.833H961.731V540.478ZM961.152 554.015C962.648 554.015 963.935 554.168 965.013 554.474C966.107 554.78 966.951 555.23 967.546 555.825C968.142 556.404 968.439 557.104 968.439 557.925C968.439 558.745 968.142 559.445 967.546 560.024C966.951 560.619 966.107 561.07 965.013 561.375C963.935 561.681 962.648 561.834 961.152 561.834C959.656 561.834 958.361 561.681 957.267 561.375C956.173 561.07 955.328 560.619 954.733 560.024C954.154 559.445 953.864 558.745 953.864 557.925C953.864 557.104 954.154 556.404 954.733 555.825C955.328 555.23 956.173 554.78 957.267 554.474C958.361 554.168 959.656 554.015 961.152 554.015ZM961.152 555.56C959.511 555.56 958.216 555.769 957.267 556.187C956.317 556.606 955.843 557.185 955.843 557.925C955.843 558.665 956.317 559.244 957.267 559.662C958.216 560.08 959.511 560.29 961.152 560.29C962.246 560.29 963.187 560.193 963.975 560C964.763 559.823 965.367 559.558 965.785 559.204C966.219 558.85 966.436 558.423 966.436 557.925C966.436 557.185 965.962 556.606 965.013 556.187C964.08 555.769 962.793 555.56 961.152 555.56ZM987.067 540.043H989.07V552.833H987.067V540.043ZM988.515 545.569H992.279V547.259H988.515V545.569ZM981.01 541.443H983.109C983.109 543.277 982.699 544.934 981.879 546.414C981.074 547.878 979.908 549.133 978.38 550.179C976.851 551.224 975.025 552.037 972.902 552.616L972.081 551.047C973.964 550.532 975.572 549.857 976.908 549.02C978.243 548.168 979.256 547.178 979.948 546.052C980.656 544.91 981.01 543.671 981.01 542.336V541.443ZM973.071 541.443H982.144V543.06H973.071V541.443ZM974.881 553.847H989.07V561.882H987.067V555.487H974.881V553.847ZM1009.12 540.043H1011.1V561.882H1009.12V540.043ZM1010.64 549.02H1014.67V550.709H1010.64V549.02ZM994.208 543.542H1007.07V545.183H994.208V543.542ZM1000.75 546.969C1001.78 546.969 1002.69 547.186 1003.47 547.621C1004.28 548.055 1004.91 548.65 1005.36 549.406C1005.82 550.146 1006.06 551.007 1006.06 551.988C1006.06 552.97 1005.82 553.838 1005.36 554.595C1004.91 555.351 1004.28 555.946 1003.47 556.38C1002.69 556.799 1001.78 557.008 1000.75 557.008C999.718 557.008 998.801 556.799 997.996 556.38C997.208 555.946 996.581 555.351 996.114 554.595C995.648 553.838 995.414 552.97 995.414 551.988C995.414 551.007 995.648 550.146 996.114 549.406C996.581 548.65 997.208 548.055 997.996 547.621C998.801 547.186 999.718 546.969 1000.75 546.969ZM1000.75 548.634C1000.09 548.634 999.501 548.779 998.986 549.069C998.471 549.358 998.061 549.752 997.755 550.251C997.466 550.75 997.321 551.329 997.321 551.988C997.321 552.648 997.466 553.235 997.755 553.75C998.061 554.249 998.471 554.643 998.986 554.932C999.501 555.206 1000.09 555.343 1000.75 555.343C1001.39 555.343 1001.97 555.206 1002.48 554.932C1003 554.643 1003.4 554.249 1003.69 553.75C1004 553.235 1004.15 552.648 1004.15 551.988C1004.15 551.329 1004 550.75 1003.69 550.251C1003.4 549.752 1003 549.358 1002.48 549.069C1001.97 548.779 1001.39 548.634 1000.75 548.634ZM999.71 540.309H1001.71V544.266H999.71V540.309ZM1025.12 547.862H1029.32V549.527H1025.12V547.862ZM1021.06 542.095H1022.63V546.269C1022.63 547.395 1022.51 548.505 1022.27 549.599C1022.05 550.693 1021.71 551.723 1021.26 552.688C1020.82 553.653 1020.29 554.522 1019.66 555.294C1019.04 556.067 1018.33 556.694 1017.54 557.177L1016.29 555.68C1017.03 555.23 1017.69 554.667 1018.29 553.991C1018.88 553.316 1019.38 552.56 1019.79 551.723C1020.2 550.87 1020.52 549.985 1020.73 549.069C1020.95 548.135 1021.06 547.202 1021.06 546.269V542.095ZM1021.45 542.095H1022.99V546.197C1022.99 547.066 1023.09 547.942 1023.28 548.827C1023.49 549.696 1023.78 550.532 1024.15 551.337C1024.54 552.125 1025.01 552.849 1025.58 553.509C1026.14 554.168 1026.78 554.715 1027.48 555.15L1026.35 556.694C1025.56 556.211 1024.86 555.6 1024.25 554.86C1023.64 554.104 1023.12 553.259 1022.71 552.326C1022.29 551.377 1021.97 550.38 1021.76 549.334C1021.55 548.288 1021.45 547.243 1021.45 546.197V542.095ZM1033.15 540.043H1035.08V561.882H1033.15V540.043ZM1028.71 540.502H1030.6V560.772H1028.71V540.502ZM1043.58 551.289H1045.56V557.804H1043.58V551.289ZM1051.64 551.289H1053.64V557.804H1051.64V551.289ZM1038.73 557.418H1058.51V559.083H1038.73V557.418ZM1048.57 541.419C1050.12 541.419 1051.48 541.652 1052.67 542.119C1053.86 542.585 1054.8 543.237 1055.47 544.073C1056.17 544.91 1056.51 545.899 1056.51 547.041C1056.51 548.168 1056.17 549.157 1055.47 550.01C1054.8 550.846 1053.86 551.498 1052.67 551.964C1051.48 552.415 1050.12 552.64 1048.57 552.64C1047.04 552.64 1045.68 552.415 1044.47 551.964C1043.28 551.498 1042.35 550.846 1041.67 550.01C1040.99 549.157 1040.66 548.168 1040.66 547.041C1040.66 545.899 1040.99 544.91 1041.67 544.073C1042.35 543.237 1043.28 542.585 1044.47 542.119C1045.68 541.652 1047.04 541.419 1048.57 541.419ZM1048.57 543.012C1047.41 543.012 1046.38 543.18 1045.48 543.518C1044.58 543.856 1043.87 544.331 1043.36 544.942C1042.84 545.537 1042.59 546.237 1042.59 547.041C1042.59 547.846 1042.84 548.554 1043.36 549.165C1043.87 549.76 1044.58 550.227 1045.48 550.565C1046.38 550.902 1047.41 551.071 1048.57 551.071C1049.75 551.071 1050.78 550.902 1051.68 550.565C1052.59 550.227 1053.29 549.76 1053.81 549.165C1054.32 548.554 1054.58 547.846 1054.58 547.041C1054.58 546.237 1054.32 545.537 1053.81 544.942C1053.29 544.331 1052.59 543.856 1051.68 543.518C1050.78 543.18 1049.75 543.012 1048.57 543.012ZM1064.24 542.45L1064.07 555.064H1062.08L1061.91 542.45H1064.24ZM1063.08 560.137C1062.66 560.137 1062.29 559.986 1061.99 559.683C1061.69 559.38 1061.54 559.017 1061.54 558.595C1061.54 558.172 1061.69 557.809 1061.99 557.506C1062.29 557.204 1062.66 557.052 1063.08 557.052C1063.5 557.052 1063.86 557.204 1064.17 557.506C1064.47 557.809 1064.62 558.172 1064.62 558.595C1064.62 558.875 1064.55 559.132 1064.41 559.366C1064.27 559.6 1064.08 559.789 1063.85 559.931C1063.62 560.069 1063.36 560.137 1063.08 560.137Z" fill="#6A6A6A"/>
<path d="M920.371 321.789V343H916.533V325.51H916.416L911.465 328.674V325.188L916.709 321.789H920.371ZM946.826 319.152V338.693H943.574V328.938H938.242V334.387H925.85V320.881H929.102V325.158H935.02V320.881H938.242V326.301H943.574V319.152H946.826ZM947.412 342.443V345.08H929.365V336.76H932.676V342.443H947.412ZM929.102 331.809H935.02V327.678H929.102V331.809ZM979.697 319.123V332.775H976.475V319.123H979.697ZM979.756 333.889V340.715H965.43V342.854H980.547V345.373H962.236V338.342H976.504V336.379H962.178V333.889H979.756ZM973.311 320.441V323.078H967.773C967.905 326.008 970.146 328.776 974.248 329.904L972.666 332.424C969.575 331.53 967.363 329.641 966.162 327.238C964.976 329.89 962.661 331.999 959.395 332.98L957.9 330.402C962.002 329.187 964.287 326.213 964.463 323.078H958.75V320.441H973.311ZM1007.79 332.365V334.973H997.568V339.836H994.346V334.973H983.594V332.365H1007.79ZM1004.69 320.324V329.904H986.67V320.324H1004.69ZM989.834 322.873V327.355H1001.46V322.873H989.834ZM1005.13 342.443V345.08H986.523V337.404H989.775V342.443H1005.13Z" fill="#292A2E" fill-opacity="0.7"/>
</g>
<path d="M876.734 879.499C873.529 881.028 870.447 881.253 868.917 878.049L867.658 875.411L866.273 872.51L864.912 868.302L864.043 865.803L863.437 863.177L861.027 852.022L860.187 840.765L860.563 827.308C861.162 823.136 867.63 799.137 870.835 797.607C874.039 796.077 876.73 799.586 879.602 806.959L877.264 813.973L874.892 822.008L874.146 826.85L873.43 835.612L873.755 843.582L874.85 853.844L876.918 862.247L880.281 871.434C881.811 874.639 879.938 877.969 876.734 879.499Z" fill="#E7F2FF"/>
<path d="M959.677 747.633C959.677 744.082 960.802 741.204 964.353 741.204H967.275H970.49L974.874 741.788L977.504 742.08L980.134 742.665L991.239 745.295L1001.76 749.387L1013.74 755.524C1017.25 757.862 1032.74 768.631 1032.74 772.182C1032.74 775.733 1031.28 780.657 1023.39 780.072L1018.71 775.689L1012.57 771.013L1007.31 767.214L1000.3 763.414L992.993 760.2L983.641 756.985L975.166 755.231L966.106 754.062C962.555 754.062 959.677 751.184 959.677 747.633Z" fill="#E7F2FF"/>
<path d="M1020.67 768.696C1022.95 765.971 1025.65 764.484 1028.38 766.761L1030.62 768.635L1033.09 770.696L1036.08 773.956L1037.91 775.866L1039.55 778.002L1046.39 787.141L1051.84 797.027L1057.09 809.42C1058.29 813.463 1062.49 834.92 1060.21 837.644C1057.93 840.369 1054.2 844.614 1048.52 839.106L1048.23 837.06L1047.64 829.169L1046.27 820.556L1044.67 814.267L1041.72 806.854L1038.17 799.702L1033.06 791.239L1027.68 784.459L1021.48 777.752C1018.75 775.475 1018.39 771.42 1020.67 768.696Z" fill="#E7F2FF"/>
<path d="M1054.32 829.367C1057.86 829.097 1060.81 829.999 1061.08 833.54L1061.31 836.454L1061.55 839.659L1061.3 844.075L1061.21 846.719L1060.83 849.387L1059.05 860.66L1055.77 871.462L1050.57 883.877C1048.5 887.552 1038.95 903.816 1035.41 904.087C1031.86 904.357 1026.84 903.275 1026.83 895.363L1030.98 890.541L1035.37 884.112L1038 879.436L1041.8 871.838L1044.43 864.239L1046.82 853.974L1047.92 845.39L1048.4 836.268C1048.13 832.727 1050.78 829.638 1054.32 829.367Z" fill="#E7F2FF"/>
<path d="M1036.21 894.56C1038.99 896.764 1040.55 899.433 1038.34 902.217L1036.53 904.508L1034.53 907.029L1031.36 910.103L1029.49 911.984L1027.4 913.683L1018.45 920.758L1008.71 926.467L996.46 932.052C992.45 933.35 974.392 938.81 971.608 936.606C968.824 934.402 965.87 930.199 971.226 924.376L977.553 923.657L985.394 921.519L990.07 920.058L998.253 916.843L1005.27 913.044L1014 907.544L1020.63 901.988L1027.4 894.924C1029.61 892.14 1033.42 892.356 1036.21 894.56Z" fill="#E7F2FF"/>
<path d="M986.36 928.048C987.284 931.477 986.946 934.549 983.517 935.472L980.695 936.232L977.591 937.068L973.206 937.643L970.59 938.045L967.899 938.165L956.491 938.512L945.269 937.297L932.103 934.487C928.109 933.141 910.352 926.769 909.429 923.341C908.506 919.912 908.636 914.777 916.407 913.29L921.917 916.481L929.489 919.435L934.115 921.046L942.603 923.339L950.499 924.465L960.789 925.249L969.428 924.738L979.073 923.097C982.502 922.174 985.437 924.619 986.36 928.048Z" fill="#E7F2FF"/>
<path d="M920.727 923.185C919.149 926.366 916.861 928.444 913.68 926.866L911.063 925.567L908.183 924.138L904.516 921.666L902.29 920.235L900.193 918.542L891.414 911.25L883.808 902.909L875.803 892.085C873.701 888.432 864.612 871.901 866.191 868.72C867.769 865.539 871.267 861.777 878.075 865.808L880.092 871.848L883.81 879.074L886.21 883.345L891.053 890.683L896.225 896.756L903.417 904.156L910.229 909.494L918.544 914.649C921.724 916.228 922.305 920.004 920.727 923.185Z" fill="#E7F2FF"/>
<path d="M872.455 808.82C869.138 807.552 866.851 805.473 868.119 802.156L869.163 799.426L870.311 796.424L872.423 792.538L873.635 790.185L875.121 787.937L881.544 778.504L889.123 770.138L899.135 761.139C902.571 758.698 918.162 748.077 921.479 749.345C924.796 750.613 928.873 753.737 925.509 760.898L919.689 763.481L912.849 767.87L908.826 770.666L901.983 776.186L896.431 781.912L889.749 789.776L885.084 797.066L880.743 805.834C879.475 809.15 875.771 810.088 872.455 808.82Z" fill="#E7F2FF"/>
<path d="M896.563 772.518C894.195 769.872 893.114 766.977 895.76 764.609L897.937 762.659L900.332 760.515L903.989 758.027L906.143 756.491L908.493 755.172L918.522 749.726L929.09 745.758L942.111 742.339C946.284 741.742 965.007 739.437 967.375 742.082C969.743 744.728 971.939 749.372 965.67 754.199L959.313 753.83L951.223 754.602L946.366 755.246L937.755 757.021L930.197 759.571L920.657 763.504L913.172 767.849L905.3 773.657C902.654 776.025 898.932 775.164 896.563 772.518Z" fill="#E7F2FF"/>
<path d="M1004.95 923.124C1006.85 926.183 1009.36 928.061 1012.42 926.159L1014.94 924.595L1017.71 922.873L1021.17 920.022L1023.28 918.362L1025.24 916.45L1033.39 908.238L1040.27 899.08L1047.3 887.377C1049.07 883.485 1056.65 865.914 1054.75 862.855C1052.85 859.796 1048.95 856.336 1042.47 861.065L1040.79 867.345L1038 874.659L1035.51 880.749L1031.5 887.778L1026.92 894.459L1020.59 902.236L1014.23 908.285L1006.42 914.346C1003.36 916.247 1003.05 920.065 1004.95 923.124Z" fill="#5A72FF"/>
<path d="M960.654 747.522C960.654 743.92 959.513 741 955.911 741H952.947H949.686L945.24 741.593L942.572 741.889L939.904 742.482L928.639 745.15L917.968 749.3L905.814 755.525C902.257 757.897 886.546 768.82 886.546 772.422C886.546 776.024 888.028 781.019 896.032 780.426L900.775 775.979L907 771.236L912.336 767.383L919.45 763.529L926.861 760.268L936.347 757.007L944.943 755.229L954.133 754.043C957.735 754.043 960.654 751.123 960.654 747.522Z" fill="#5A72FF"/>
<path d="M897.979 770.252C895.602 767.547 892.817 766.106 890.112 768.483L887.885 770.44L885.435 772.592L882.486 775.972L880.677 777.956L879.064 780.162L872.362 789.601L867.084 799.762L862.062 812.46C860.955 816.59 856.362 835.165 858.739 837.871C861.116 840.577 865.526 843.351 871.148 837.623L871.776 831.152L873.322 823.481L874.788 817.064L877.589 809.473L881.004 802.132L885.978 793.422L891.263 786.412L897.384 779.456C900.09 777.079 900.356 772.958 897.979 770.252Z" fill="#5A72FF"/>
<path d="M865.845 823.58C862.278 823.085 859.229 823.814 858.734 827.382L858.326 830.318L857.878 833.548L857.854 838.034L857.781 840.717L858.002 843.441L859.096 854.966L861.74 866.106L866.235 879C868.095 882.85 876.756 899.913 880.323 900.408C883.891 900.903 889.042 900.122 889.555 892.112L885.802 886.803L881.96 879.985L878.877 874.171L876.037 866.594L873.826 858.805L871.9 848.961L871.32 840.202L871.409 830.937C871.904 827.369 869.413 824.076 865.845 823.58Z" fill="#5A72FF"/>
<path d="M880.953 891.848C878.017 893.934 876.298 896.555 878.383 899.491L880.1 901.908L881.988 904.566L885.047 907.848L886.833 909.852L888.861 911.683L897.56 919.322L907.123 925.619L919.236 931.922C923.229 933.449 941.233 939.932 944.169 937.846C947.106 935.76 950.32 931.66 945.201 925.478L938.83 924.186L931.358 921.858L925.126 919.739L917.865 916.171L910.915 912.017L902.763 906.172L896.335 900.193L889.806 892.775C887.72 889.838 883.89 889.762 880.953 891.848Z" fill="#5A72FF"/>
<path d="M939.929 931.179C939.202 934.707 939.73 937.797 943.258 938.524L946.161 939.123L949.355 939.781L953.829 940.098L956.502 940.346L959.235 940.304L970.806 939.966L982.096 938.056L995.256 934.413C999.219 932.808 1016.81 925.282 1017.54 921.754C1018.27 918.227 1017.82 913.036 1009.86 912L1004.32 915.398L997.267 918.786L991.263 921.483L983.517 923.821L975.6 925.518L965.651 926.796L956.873 926.803L947.038 925.824C943.511 925.097 940.656 927.652 939.929 931.179Z" fill="#5A72FF"/>
<path d="M960.27 862.194C950.584 862.194 943.503 856.449 943.235 848.433H951.719C951.986 852.374 955.661 855.18 960.27 855.18C965.681 855.18 969.555 851.238 969.555 845.894C969.555 840.35 965.547 836.408 960.003 836.408C956.262 836.342 953.523 837.678 951.986 840.55H943.903L946.843 813.161H975.434V820.443H953.991L952.521 833.269H952.988C954.859 831.131 958.399 829.595 962.341 829.595C971.359 829.595 977.972 836.342 977.972 845.627C977.972 855.313 970.691 862.194 960.27 862.194Z" fill="#0400FF"/>
<defs>
<filter id="filter0_d_2173_19" x="213" y="56" width="1494" height="76" filterUnits="userSpaceOnUse" color-interpolation-filters="sRGB">
<feFlood flood-opacity="0" result="BackgroundImageFix"/>
<feColorMatrix in="SourceAlpha" type="matrix" values="0 0 0 0 0 0 0 0 0 0 0 0 0 0 0 0 0 0 127 0" result="hardAlpha"/>
<feOffset dy="8"/>
<feGaussianBlur stdDeviation="12"/>
<feComposite in2="hardAlpha" operator="out"/>
<feColorMatrix type="matrix" values="0 0 0 0 0.439216 0 0 0 0 0.564706 0 0 0 0 0.690196 0 0 0 0.15 0"/>
<feBlend mode="normal" in2="BackgroundImageFix" result="effect1_dropShadow_2173_19"/>
<feBlend mode="normal" in="SourceGraphic" in2="effect1_dropShadow_2173_19" result="shape"/>
</filter>
<filter id="filter1_d_2173_19" x="213.335" y="56.4184" width="542.331" height="74.9401" filterUnits="userSpaceOnUse" color-interpolation-filters="sRGB">
<feFlood flood-opacity="0" result="BackgroundImageFix"/>
<feColorMatrix in="SourceAlpha" type="matrix" values="0 0 0 0 0 0 0 0 0 0 0 0 0 0 0 0 0 0 127 0" result="hardAlpha"/>
<feOffset dy="7.88845"/>
<feGaussianBlur stdDeviation="11.8327"/>
<feComposite in2="hardAlpha" operator="out"/>
<feColorMatrix type="matrix" values="0 0 0 0 0.439216 0 0 0 0 0.564706 0 0 0 0 0.690196 0 0 0 0.15 0"/>
<feBlend mode="normal" in2="BackgroundImageFix" result="effect1_dropShadow_2173_19"/>
<feBlend mode="normal" in="SourceGraphic" in2="effect1_dropShadow_2173_19" result="shape"/>
</filter>
<filter id="filter2_d_2173_19" x="579.558" y="242.465" width="760.884" height="425.86" filterUnits="userSpaceOnUse" color-interpolation-filters="sRGB">
<feFlood flood-opacity="0" result="BackgroundImageFix"/>
<feColorMatrix in="SourceAlpha" type="matrix" values="0 0 0 0 0 0 0 0 0 0 0 0 0 0 0 0 0 0 127 0" result="hardAlpha"/>
<feOffset dy="3.90698"/>
<feGaussianBlur stdDeviation="11.7209"/>
<feComposite in2="hardAlpha" operator="out"/>
<feColorMatrix type="matrix" values="0 0 0 0 0.439216 0 0 0 0 0.564706 0 0 0 0 0.690196 0 0 0 0.3 0"/>
<feBlend mode="normal" in2="BackgroundImageFix" result="effect1_dropShadow_2173_19"/>
<feBlend mode="normal" in="SourceGraphic" in2="effect1_dropShadow_2173_19" result="shape"/>
</filter>
<filter id="filter3_d_2173_19" x="579.558" y="242.465" width="760.884" height="425.86" filterUnits="userSpaceOnUse" color-interpolation-filters="sRGB">
<feFlood flood-opacity="0" result="BackgroundImageFix"/>
<feColorMatrix in="SourceAlpha" type="matrix" values="0 0 0 0 0 0 0 0 0 0 0 0 0 0 0 0 0 0 127 0" result="hardAlpha"/>
<feOffset dy="3.90698"/>
<feGaussianBlur stdDeviation="11.7209"/>
<feComposite in2="hardAlpha" operator="out"/>
<feColorMatrix type="matrix" values="0 0 0 0 0.439216 0 0 0 0 0.564706 0 0 0 0 0.690196 0 0 0 0.3 0"/>
<feBlend mode="normal" in2="BackgroundImageFix" result="effect1_dropShadow_2173_19"/>
<feBlend mode="normal" in="SourceGraphic" in2="effect1_dropShadow_2173_19" result="shape"/>
</filter>
<linearGradient id="paint0_linear_2173_19" x1="1920" y1="540" x2="0" y2="540" gradientUnits="userSpaceOnUse">
<stop stop-color="#B4B3FF"/>
<stop offset="0.25" stop-color="#B4B3FF"/>
<stop offset="0.807692" stop-color="#B3E2FF"/>
<stop offset="1" stop-color="#B3FAFF"/>
</linearGradient>
<linearGradient id="paint1_linear_2173_19" x1="237" y1="86.0001" x2="732" y2="86.0001" gradientUnits="userSpaceOnUse">
<stop stop-color="#5472EB"/>
<stop offset="1" stop-color="#B756E8"/>
</linearGradient>
</defs>
</svg>
