<svg width="211" height="22" viewBox="0 0 211 22" fill="none" xmlns="http://www.w3.org/2000/svg">
<path d="M6.8324 20.2399C5.62126 20.2399 4.54152 20.0171 3.59318 19.5715C2.65055 19.1259 1.90216 18.5118 1.34801 17.7291C0.793853 16.9465 0.505351 16.0495 0.4825 15.0383H4.08163C4.12162 15.7182 4.40727 16.2695 4.93857 16.6922C5.46987 17.115 6.10115 17.3264 6.8324 17.3264C7.41511 17.3264 7.92928 17.1978 8.37488 16.9407C8.8262 16.6779 9.17755 16.3152 9.42891 15.8524C9.686 15.384 9.81454 14.847 9.81454 14.2414C9.81454 13.6244 9.68314 13.0817 9.42034 12.6132C9.16326 12.1448 8.80621 11.7791 8.34917 11.5163C7.89214 11.2535 7.36941 11.1193 6.78098 11.1136C6.26682 11.1136 5.76694 11.2193 5.28134 11.4306C4.80146 11.642 4.42726 11.9305 4.15876 12.2961L0.859552 11.7049L1.69078 2.44995H12.4196V5.4835H4.75004L4.29587 9.87958H4.3987C4.7072 9.4454 5.1728 9.08549 5.7955 8.79984C6.41821 8.5142 7.11519 8.37137 7.88643 8.37137C8.94332 8.37137 9.88595 8.61989 10.7143 9.11691C11.5427 9.61393 12.1968 10.2966 12.6767 11.165C13.1566 12.0276 13.3937 13.0217 13.388 14.1471C13.3937 15.3297 13.1195 16.3809 12.5653 17.3007C12.0169 18.2147 11.2485 18.9345 10.2601 19.4601C9.27752 19.98 8.13494 20.2399 6.8324 20.2399ZM15.5428 17.0077H35.789V19.6139H15.5428V17.0077ZM24.0611 12.6882H27.2465V18.3349H24.0611V12.6882ZM24.037 4.43529H26.8604V4.91792C26.8604 5.99579 26.6512 7.0093 26.233 7.95847C25.8147 8.89155 25.1953 9.73614 24.3748 10.4923C23.5705 11.2484 22.5811 11.8838 21.4067 12.3986C20.2323 12.9134 18.8729 13.2674 17.3285 13.4604L16.1702 10.9025C17.5376 10.7416 18.712 10.4681 19.6934 10.082C20.6908 9.67984 21.5032 9.19721 22.1306 8.63415C22.7741 8.07108 23.2487 7.47584 23.5544 6.84843C23.8761 6.20493 24.037 5.56142 24.037 4.91792V4.43529ZM24.4472 4.43529H27.2706V4.91792C27.2706 5.56142 27.4234 6.20493 27.7291 6.84843C28.0508 7.47584 28.5254 8.07108 29.1528 8.63415C29.7963 9.19721 30.6168 9.67984 31.6142 10.082C32.6117 10.4681 33.7861 10.7416 35.1374 10.9025L33.9791 13.4604C32.4347 13.2674 31.0753 12.9134 29.9009 12.3986C28.7265 11.8838 27.7291 11.2484 26.9086 10.4923C26.1043 9.73614 25.4929 8.89155 25.0747 7.95847C24.6564 7.0093 24.4472 5.99579 24.4472 4.91792V4.43529ZM17.2561 2.8185H34.0274V5.37642H17.2561V2.8185ZM24.0611 0.0916559H27.2465V3.85614H24.0611V0.0916559Z" fill="#5B59DE"/>
<path d="M44.7458 10.806H64.4853V12.4228H44.7458V10.806ZM53.6262 7.30692H55.5808V11.4816H53.6262V7.30692ZM47.2314 6.67951H62.1686V8.29631H47.2314V6.67951ZM47.2314 1.05691H62.0239V2.64958H49.2101V7.64476H47.2314V1.05691ZM54.5914 13.9913C56.9241 13.9913 58.75 14.3372 60.0692 15.0289C61.3884 15.7046 62.048 16.6699 62.048 17.9247C62.048 19.1795 61.3884 20.1448 60.0692 20.8205C58.75 21.5122 56.9241 21.8581 54.5914 21.8581C52.2587 21.8581 50.4247 21.5122 49.0895 20.8205C47.7703 20.1448 47.1107 19.1795 47.1107 17.9247C47.1107 16.6699 47.7703 15.7046 49.0895 15.0289C50.4247 14.3372 52.2587 13.9913 54.5914 13.9913ZM54.5673 15.5598C53.4411 15.5598 52.4679 15.6564 51.6474 15.8494C50.843 16.0264 50.2236 16.2918 49.7893 16.6457C49.3549 16.9836 49.1377 17.4099 49.1377 17.9247C49.1377 18.4234 49.3549 18.8497 49.7893 19.2037C50.2236 19.5576 50.843 19.823 51.6474 20C52.4679 20.1931 53.4411 20.2896 54.5673 20.2896C55.7256 20.2896 56.7069 20.1931 57.5113 20C58.3318 19.823 58.9592 19.5576 59.3935 19.2037C59.8279 18.8497 60.0451 18.4234 60.0451 17.9247C60.0451 17.4099 59.8279 16.9836 59.3935 16.6457C58.9592 16.2918 58.3318 16.0264 57.5113 15.8494C56.7069 15.6564 55.7256 15.5598 54.5673 15.5598ZM81.882 0.0433939H83.8849V16.1149H81.882V0.0433939ZM83.2575 6.67951H87.0944V8.34457H83.2575V6.67951ZM70.299 19.7587H84.8502V21.3996H70.299V19.7587ZM70.299 14.4739H72.2778V20.4102H70.299V14.4739ZM73.0259 1.5878C74.1198 1.5878 75.0931 1.82107 75.9457 2.28761C76.7984 2.73806 77.4741 3.36547 77.9728 4.16985C78.4715 4.97423 78.7208 5.90731 78.7208 6.96908C78.7208 7.99869 78.4715 8.92372 77.9728 9.74419C77.4741 10.5647 76.7984 11.2082 75.9457 11.6747C75.0931 12.1251 74.1198 12.3504 73.0259 12.3504C71.948 12.3504 70.9747 12.1251 70.106 11.6747C69.2533 11.2082 68.5776 10.5647 68.0789 9.74419C67.5802 8.92372 67.3309 7.99869 67.3309 6.96908C67.3309 5.90731 67.5802 4.97423 68.0789 4.16985C68.5776 3.36547 69.2533 2.73806 70.106 2.28761C70.9747 1.82107 71.948 1.5878 73.0259 1.5878ZM73.0259 3.32525C72.318 3.32525 71.6825 3.47809 71.1195 3.78375C70.5564 4.08941 70.106 4.51573 69.7681 5.06271C69.4464 5.60969 69.2855 6.24514 69.2855 6.96908C69.2855 7.67694 69.4464 8.30435 69.7681 8.85133C70.106 9.3983 70.5564 9.82462 71.1195 10.1303C71.6825 10.436 72.318 10.5888 73.0259 10.5888C73.7337 10.5888 74.3692 10.436 74.9322 10.1303C75.5114 9.82462 75.9618 9.3983 76.2836 8.85133C76.6214 8.30435 76.7903 7.67694 76.7903 6.96908C76.7903 6.24514 76.6214 5.60969 76.2836 5.06271C75.9618 4.51573 75.5114 4.08941 74.9322 3.78375C74.3692 3.47809 73.7337 3.32525 73.0259 3.32525ZM100.491 1.41888H102.084V4.33877C102.084 5.41664 101.883 6.48646 101.481 7.54824C101.079 8.61001 100.499 9.56722 99.7434 10.4199C99.0033 11.2725 98.0944 11.9401 97.0165 12.4228L95.9306 10.8784C96.8798 10.4601 97.6922 9.89702 98.3679 9.18917C99.0597 8.46523 99.5825 7.67694 99.9364 6.8243C100.306 5.97166 100.491 5.14315 100.491 4.33877V1.41888ZM100.829 1.41888H102.422V4.33877C102.422 5.12706 102.591 5.91535 102.929 6.70364C103.283 7.47584 103.789 8.17565 104.449 8.80306C105.125 9.41439 105.921 9.90506 106.838 10.2751L105.776 11.8195C104.731 11.4012 103.838 10.806 103.098 10.0338C102.358 9.26156 101.795 8.38479 101.408 7.40345C101.022 6.42211 100.829 5.40055 100.829 4.33877V1.41888ZM112.412 0.0675249H114.319V13.5328H112.412V0.0675249ZM108.937 5.90731H113.04V7.54824H108.937V5.90731ZM107.731 0.477758H109.613V12.833H107.731V0.477758ZM107.152 14.0154C108.648 14.0154 109.935 14.1683 111.013 14.4739C112.107 14.7796 112.951 15.23 113.546 15.8253C114.142 16.4044 114.439 17.1042 114.439 17.9247C114.439 18.7452 114.142 19.445 113.546 20.0241C112.951 20.6194 112.107 21.0698 111.013 21.3755C109.935 21.6811 108.648 21.834 107.152 21.834C105.656 21.834 104.361 21.6811 103.267 21.3755C102.173 21.0698 101.328 20.6194 100.733 20.0241C100.154 19.445 99.864 18.7452 99.864 17.9247C99.864 17.1042 100.154 16.4044 100.733 15.8253C101.328 15.23 102.173 14.7796 103.267 14.4739C104.361 14.1683 105.656 14.0154 107.152 14.0154ZM107.152 15.5598C105.511 15.5598 104.216 15.769 103.267 16.1873C102.317 16.6055 101.843 17.1847 101.843 17.9247C101.843 18.6647 102.317 19.2439 103.267 19.6622C104.216 20.0804 105.511 20.2896 107.152 20.2896C108.246 20.2896 109.187 20.1931 109.975 20C110.763 19.823 111.367 19.5576 111.785 19.2037C112.219 18.8497 112.436 18.4234 112.436 17.9247C112.436 17.1847 111.962 16.6055 111.013 16.1873C110.08 15.769 108.793 15.5598 107.152 15.5598ZM133.067 0.0433939H135.07V12.833H133.067V0.0433939ZM134.515 5.56947H138.279V7.25866H134.515V5.56947ZM127.01 1.44301H129.109C129.109 3.27699 128.699 4.93401 127.879 6.41406C127.074 7.87803 125.908 9.13286 124.38 10.1786C122.851 11.2242 121.025 12.0367 118.902 12.6158L118.081 11.0473C119.964 10.5325 121.572 9.8568 122.908 9.02025C124.243 8.16761 125.256 7.17822 125.948 6.05209C126.656 4.90988 127.01 3.67114 127.01 2.33587V1.44301ZM119.071 1.44301H128.144V3.05981H119.071V1.44301ZM120.881 13.8465H135.07V21.8822H133.067V15.4874H120.881V13.8465ZM155.121 0.0433939H157.1V21.8822H155.121V0.0433939ZM156.641 9.02025H160.671V10.7094H156.641V9.02025ZM140.208 3.54244H153.07V5.18337H140.208V3.54244ZM146.747 6.96908C147.777 6.96908 148.686 7.18627 149.474 7.62063C150.279 8.05499 150.906 8.65023 151.357 9.40635C151.823 10.1464 152.056 11.0071 152.056 11.9884C152.056 12.9697 151.823 13.8385 151.357 14.5946C150.906 15.3507 150.279 15.9459 149.474 16.3803C148.686 16.7986 147.777 17.0077 146.747 17.0077C145.718 17.0077 144.801 16.7986 143.996 16.3803C143.208 15.9459 142.581 15.3507 142.114 14.5946C141.648 13.8385 141.414 12.9697 141.414 11.9884C141.414 11.0071 141.648 10.1464 142.114 9.40635C142.581 8.65023 143.208 8.05499 143.996 7.62063C144.801 7.18627 145.718 6.96908 146.747 6.96908ZM146.747 8.63415C146.088 8.63415 145.501 8.77893 144.986 9.06851C144.471 9.35809 144.061 9.75223 143.755 10.2509C143.466 10.7497 143.321 11.3288 143.321 11.9884C143.321 12.648 143.466 13.2352 143.755 13.75C144.061 14.2487 144.471 14.6428 144.986 14.9324C145.501 15.2059 146.088 15.3427 146.747 15.3427C147.391 15.3427 147.97 15.2059 148.485 14.9324C149 14.6428 149.402 14.2487 149.691 13.75C149.997 13.2352 150.15 12.648 150.15 11.9884C150.15 11.3288 149.997 10.7497 149.691 10.2509C149.402 9.75223 149 9.35809 148.485 9.06851C147.97 8.77893 147.391 8.63415 146.747 8.63415ZM145.71 0.308838H147.713V4.26638H145.71V0.308838ZM171.118 7.86194H175.317V9.527H171.118V7.86194ZM167.064 2.09456H168.633V6.26928C168.633 7.3954 168.512 8.50545 168.271 9.5994C168.045 10.6934 167.708 11.723 167.257 12.6882C166.823 13.6535 166.292 14.5222 165.665 15.2944C165.037 16.0666 164.329 16.694 163.541 17.1766L162.286 15.6805C163.026 15.23 163.694 14.667 164.289 13.9913C164.884 13.3156 165.383 12.5595 165.785 11.723C166.203 10.8703 166.517 9.9855 166.726 9.06851C166.952 8.13543 167.064 7.20235 167.064 6.26928V2.09456ZM167.45 2.09456H168.995V6.19688C168.995 7.06561 169.091 7.94238 169.284 8.8272C169.493 9.69592 169.783 10.5325 170.153 11.3369C170.539 12.1251 171.014 12.8491 171.577 13.5087C172.14 14.1683 172.775 14.7152 173.483 15.1496L172.349 16.694C171.561 16.2114 170.861 15.6001 170.249 14.86C169.638 14.1039 169.123 13.2593 168.705 12.3262C168.287 11.3771 167.973 10.3796 167.764 9.33395C167.555 8.28826 167.45 7.24257 167.45 6.19688V2.09456ZM179.154 0.0433939H181.084V21.8822H179.154V0.0433939ZM174.714 0.501889H176.596V20.7722H174.714V0.501889ZM189.577 11.2886H191.556V17.804H189.577V11.2886ZM197.637 11.2886H199.64V17.804H197.637V11.2886ZM184.726 17.4179H204.514V19.083H184.726V17.4179ZM194.572 1.41888C196.116 1.41888 197.484 1.65215 198.674 2.11869C199.865 2.58523 200.798 3.23677 201.473 4.07333C202.165 4.90988 202.511 5.89926 202.511 7.04148C202.511 8.16761 202.165 9.15699 201.473 10.0096C200.798 10.8462 199.865 11.4977 198.674 11.9643C197.484 12.4147 196.116 12.6399 194.572 12.6399C193.044 12.6399 191.676 12.4147 190.47 11.9643C189.279 11.4977 188.346 10.8462 187.67 10.0096C186.995 9.15699 186.657 8.16761 186.657 7.04148C186.657 5.89926 186.995 4.90988 187.67 4.07333C188.346 3.23677 189.279 2.58523 190.47 2.11869C191.676 1.65215 193.044 1.41888 194.572 1.41888ZM194.572 3.01155C193.414 3.01155 192.384 3.18047 191.483 3.5183C190.582 3.85614 189.874 4.33073 189.36 4.94205C188.845 5.53729 188.587 6.2371 188.587 7.04148C188.587 7.84586 188.845 8.55371 189.36 9.16503C189.874 9.76027 190.582 10.2268 191.483 10.5647C192.384 10.9025 193.414 11.0714 194.572 11.0714C195.746 11.0714 196.784 10.9025 197.685 10.5647C198.586 10.2268 199.294 9.76027 199.808 9.16503C200.323 8.55371 200.581 7.84586 200.581 7.04148C200.581 6.2371 200.323 5.53729 199.808 4.94205C199.294 4.33073 198.586 3.85614 197.685 3.5183C196.784 3.18047 195.746 3.01155 194.572 3.01155ZM210.243 2.44995L210.072 15.064H208.084L207.912 2.44995H210.243ZM209.078 20.1371C208.655 20.1371 208.292 19.9857 207.99 19.6829C207.687 19.3801 207.535 19.0174 207.535 18.5946C207.535 18.1719 207.687 17.8091 207.99 17.5063C208.292 17.2035 208.655 17.0521 209.078 17.0521C209.501 17.0521 209.863 17.2035 210.166 17.5063C210.469 17.8091 210.62 18.1719 210.62 18.5946C210.62 18.8746 210.549 19.1316 210.406 19.3659C210.269 19.6001 210.083 19.7886 209.849 19.9314C209.621 20.0686 209.364 20.1371 209.078 20.1371Z" fill="#6A6A6A"/>
</svg>
