<svg width="97" height="27" viewBox="0 0 97 27" fill="none" xmlns="http://www.w3.org/2000/svg">
<path d="M9.37109 2.78906V24H5.5332V6.50977H5.41602L0.464844 9.67383V6.1875L5.70898 2.78906H9.37109ZM35.8262 0.152344V19.6934H32.5742V9.9375H27.2422V15.3867H14.8496V1.88086H18.1016V6.1582H24.0195V1.88086H27.2422V7.30078H32.5742V0.152344H35.8262ZM36.4121 23.4434V26.0801H18.3652V17.7598H21.6758V23.4434H36.4121ZM18.1016 12.8086H24.0195V8.67773H18.1016V12.8086ZM68.6973 0.123047V13.7754H65.4746V0.123047H68.6973ZM68.7559 14.8887V21.7148H54.4297V23.8535H69.5469V26.373H51.2363V19.3418H65.5039V17.3789H51.1777V14.8887H68.7559ZM62.3105 1.44141V4.07812H56.7734C56.9053 7.00781 59.1465 9.77637 63.248 10.9043L61.666 13.4238C58.5752 12.5303 56.3633 10.6406 55.1621 8.23828C53.9756 10.8896 51.6611 12.999 48.3945 13.9805L46.9004 11.4023C51.002 10.1865 53.2871 7.21289 53.4629 4.07812H47.75V1.44141H62.3105ZM96.793 13.3652V15.9727H86.5684V20.8359H83.3457V15.9727H72.5938V13.3652H96.793ZM93.6875 1.32422V10.9043H75.6699V1.32422H93.6875ZM78.834 3.87305V8.35547H90.4648V3.87305H78.834ZM94.127 23.4434V26.0801H75.5234V18.4043H78.7754V23.4434H94.127Z" fill="#292A2E" fill-opacity="0.7"/>
</svg>
