<svg width="102" height="27" viewBox="0 0 102 27" fill="none" xmlns="http://www.w3.org/2000/svg">
<path d="M8.46289 24.293C3.92188 24.293 0.699219 21.832 0.611328 18.2578H4.44922C4.56641 19.957 6.26562 21.0703 8.46289 21.0703C10.8066 21.0703 12.4766 19.7812 12.4766 17.9062C12.4766 16.002 10.8359 14.625 8.08203 14.625H6.17773V11.6953H8.08203C10.3379 11.6953 11.9199 10.4355 11.8906 8.58984C11.9199 6.80273 10.5723 5.60156 8.49219 5.60156C6.5 5.60156 4.77148 6.71484 4.71289 8.50195H1.05078C1.13867 4.92773 4.36133 2.49609 8.52148 2.49609C12.8281 2.49609 15.6113 5.13281 15.582 8.38477C15.6113 10.7578 14.0293 12.4863 11.7148 12.9551V13.1309C14.7031 13.541 16.4023 15.4453 16.373 18.1113C16.4023 21.6855 13.0625 24.293 8.46289 24.293ZM41.0117 0.152344V19.6934H37.7598V9.9375H32.4277V15.3867H20.0352V1.88086H23.2871V6.1582H29.2051V1.88086H32.4277V7.30078H37.7598V0.152344H41.0117ZM41.5977 23.4434V26.0801H23.5508V17.7598H26.8613V23.4434H41.5977ZM23.2871 12.8086H29.2051V8.67773H23.2871V12.8086ZM73.8828 0.123047V13.7754H70.6602V0.123047H73.8828ZM73.9414 14.8887V21.7148H59.6152V23.8535H74.7324V26.373H56.4219V19.3418H70.6895V17.3789H56.3633V14.8887H73.9414ZM67.4961 1.44141V4.07812H61.959C62.0908 7.00781 64.332 9.77637 68.4336 10.9043L66.8516 13.4238C63.7607 12.5303 61.5488 10.6406 60.3477 8.23828C59.1611 10.8896 56.8467 12.999 53.5801 13.9805L52.0859 11.4023C56.1875 10.1865 58.4727 7.21289 58.6484 4.07812H52.9355V1.44141H67.4961ZM101.979 13.3652V15.9727H91.7539V20.8359H88.5312V15.9727H77.7793V13.3652H101.979ZM98.873 1.32422V10.9043H80.8555V1.32422H98.873ZM84.0195 3.87305V8.35547H95.6504V3.87305H84.0195ZM99.3125 23.4434V26.0801H80.709V18.4043H83.9609V23.4434H99.3125Z" fill="#292A2E" fill-opacity="0.7"/>
</svg>
