<svg width="102" height="27" viewBox="0 0 102 27" fill="none" xmlns="http://www.w3.org/2000/svg">
<path d="M0.757812 24V21.2461L8.25781 14.0098C10.3965 11.8711 11.5098 10.6113 11.5098 8.82422C11.5098 6.86133 9.95703 5.60156 7.87695 5.60156C5.67969 5.60156 4.27344 6.97852 4.30273 9.11719H0.669922C0.640625 5.10352 3.6582 2.49609 7.90625 2.49609C12.2422 2.49609 15.1719 5.07422 15.1719 8.64844C15.1719 11.0508 14 12.9844 9.83984 16.9102L6.06055 20.6602V20.8066H15.4941V24H0.757812ZM40.1328 0.152344V19.6934H36.8809V9.9375H31.5488V15.3867H19.1562V1.88086H22.4082V6.1582H28.3262V1.88086H31.5488V7.30078H36.8809V0.152344H40.1328ZM40.7188 23.4434V26.0801H22.6719V17.7598H25.9824V23.4434H40.7188ZM22.4082 12.8086H28.3262V8.67773H22.4082V12.8086ZM73.0039 0.123047V13.7754H69.7812V0.123047H73.0039ZM73.0625 14.8887V21.7148H58.7363V23.8535H73.8535V26.373H55.543V19.3418H69.8105V17.3789H55.4844V14.8887H73.0625ZM66.6172 1.44141V4.07812H61.0801C61.2119 7.00781 63.4531 9.77637 67.5547 10.9043L65.9727 13.4238C62.8818 12.5303 60.6699 10.6406 59.4688 8.23828C58.2822 10.8896 55.9678 12.999 52.7012 13.9805L51.207 11.4023C55.3086 10.1865 57.5938 7.21289 57.7695 4.07812H52.0566V1.44141H66.6172ZM101.1 13.3652V15.9727H90.875V20.8359H87.6523V15.9727H76.9004V13.3652H101.1ZM97.9941 1.32422V10.9043H79.9766V1.32422H97.9941ZM83.1406 3.87305V8.35547H94.7715V3.87305H83.1406ZM98.4336 23.4434V26.0801H79.8301V18.4043H83.082V23.4434H98.4336Z" fill="#292A2E" fill-opacity="0.7"/>
</svg>
