<svg width="82" height="108" viewBox="0 0 82 108" fill="none" xmlns="http://www.w3.org/2000/svg">
<path d="M10.4904 94.9961C10.2069 93.7769 9.24294 92.983 7.57013 92.983C5.84063 92.983 4.59312 93.8903 4.62147 95.0528C4.59312 95.96 5.33028 96.6121 7.03144 97.0091L9.46976 97.5761C12.305 98.1999 13.6659 99.5608 13.6943 101.744C13.6659 104.523 11.341 106.507 7.40002 106.507C3.71419 106.507 1.50269 104.863 1.1341 101.999H4.22453C4.4797 103.388 5.5571 104.069 7.37167 104.069C9.32799 104.069 10.5755 103.275 10.6039 101.971C10.5755 100.978 9.83834 100.326 8.22224 99.9577L5.81228 99.4474C3.03372 98.8236 1.58774 97.3493 1.58774 95.2229C1.58774 92.4727 3.96936 90.6014 7.54178 90.6014C10.9724 90.6014 13.0989 92.3593 13.4108 94.9961H10.4904ZM22.5834 106.507C18.1037 106.507 15.3818 103.19 15.3818 98.5685C15.3818 93.8619 18.1887 90.6014 22.5267 90.6014C26.0424 90.6014 28.5941 92.6711 28.906 95.7899H25.9573C25.6455 94.3439 24.483 93.1248 22.5834 93.1248C20.0884 93.1248 18.4156 95.1945 18.4156 98.4834C18.4156 101.857 20.06 103.927 22.5834 103.927C24.2845 103.927 25.5888 102.991 25.9573 101.319H28.906C28.5658 104.296 26.2125 106.507 22.5834 106.507ZM31.189 106.195V90.7999H34.1093V93.2382H34.2794C34.8464 91.5937 36.3775 90.5731 38.192 90.5731C38.5606 90.5731 39.156 90.6014 39.4679 90.6298V93.5217C39.2127 93.465 38.5039 93.3516 37.8802 93.3516C35.7821 93.3516 34.2227 94.7976 34.2227 96.8106V106.195H31.189ZM47.1662 106.507C42.7999 106.507 39.9646 103.332 39.9646 98.5685C39.9646 93.7769 42.7999 90.6014 47.1662 90.6014C51.5041 90.6014 54.3394 93.7769 54.3394 98.5685C54.3394 103.332 51.5041 106.507 47.1662 106.507ZM47.1662 103.984C49.9447 103.984 51.2773 101.517 51.2773 98.5685C51.2773 95.6198 49.9447 93.0964 47.1662 93.0964C44.3309 93.0964 42.9984 95.6198 42.9984 98.5685C42.9984 101.517 44.3309 103.984 47.1662 103.984ZM59.7695 85.6681V106.195H56.7357V85.6681H59.7695ZM65.9084 85.6681V106.195H62.8746V85.6681H65.9084ZM79.2919 85.6681L79.0367 100.27H76.2298L75.9747 85.6681H79.2919ZM77.6475 106.394C76.5417 106.394 75.6061 105.486 75.6344 104.381C75.6061 103.275 76.5417 102.368 77.6475 102.368C78.7249 102.368 79.6605 103.275 79.6605 104.381C79.6605 105.486 78.7249 106.394 77.6475 106.394Z" fill="black"/>
<path d="M37.4003 64.8313C38.1973 66.2118 40.19 66.2118 40.987 64.8313L63.8008 25.3167C64.5978 23.9362 63.6015 22.2105 62.0074 22.2105H16.3799C14.7858 22.2105 13.7895 23.9362 14.5865 25.3167L37.4003 64.8313Z" fill="#057FFF"/>
<rect x="12.7734" width="52.8401" height="13.3552" rx="2.9033" fill="#057FFF"/>
</svg>
