<svg width="134" height="175" viewBox="0 0 134 175" fill="none" xmlns="http://www.w3.org/2000/svg">
<path d="M17.1429 154.286C16.6796 152.293 15.1043 150.996 12.3707 150.996C9.54444 150.996 7.50582 152.479 7.55215 154.378C7.50582 155.861 8.71046 156.927 11.4904 157.575L15.475 158.502C20.1082 159.521 22.3321 161.745 22.3785 165.313C22.3321 169.853 18.5329 173.097 12.0927 173.097C6.06952 173.097 2.45561 170.409 1.85329 165.73H6.9035C7.32049 168 9.08112 169.112 12.0464 169.112C15.2433 169.112 17.2819 167.815 17.3283 165.683C17.2819 164.062 16.0773 162.996 13.4363 162.394L9.49811 161.56C4.95755 160.541 2.59461 158.131 2.59461 154.656C2.59461 150.162 6.48651 147.104 12.3244 147.104C17.9306 147.104 21.4055 149.977 21.9151 154.286H17.1429ZM36.9046 173.097C29.5841 173.097 25.1362 167.676 25.1362 160.124C25.1362 152.432 29.7231 147.104 36.8119 147.104C42.5571 147.104 46.727 150.486 47.2366 155.583H42.4181C41.9084 153.22 40.0088 151.228 36.9046 151.228C32.8273 151.228 30.0937 154.61 30.0937 159.985C30.0937 165.498 32.781 168.88 36.9046 168.88C39.6845 168.88 41.8158 167.351 42.4181 164.618H47.2366C46.6807 169.483 42.8351 173.097 36.9046 173.097ZM50.9673 172.587V147.429H55.7395V151.413H56.0175C56.9442 148.726 59.4461 147.058 62.4114 147.058C63.0137 147.058 63.9867 147.104 64.4963 147.151V151.876C64.0793 151.784 62.921 151.598 61.9017 151.598C58.4731 151.598 55.9249 153.961 55.9249 157.251V172.587H50.9673ZM77.0765 173.097C69.9413 173.097 65.3081 167.907 65.3081 160.124C65.3081 152.293 69.9413 147.104 77.0765 147.104C84.1653 147.104 88.7985 152.293 88.7985 160.124C88.7985 167.907 84.1653 173.097 77.0765 173.097ZM77.0765 168.973C81.617 168.973 83.7946 164.942 83.7946 160.124C83.7946 155.305 81.617 151.181 77.0765 151.181C72.4432 151.181 70.2656 155.305 70.2656 160.124C70.2656 164.942 72.4432 168.973 77.0765 168.973ZM97.6721 139.042V172.587H92.7145V139.042H97.6721ZM107.704 139.042V172.587H102.746V139.042H107.704ZM129.575 139.042L129.158 162.903H124.571L124.154 139.042H129.575ZM126.887 172.911C125.08 172.911 123.551 171.429 123.598 169.622C123.551 167.815 125.08 166.332 126.887 166.332C128.648 166.332 130.177 167.815 130.177 169.622C130.177 171.429 128.648 172.911 126.887 172.911Z" fill="black"/>
<path d="M61.1182 105.944C62.4207 108.2 65.677 108.2 66.9795 105.944L104.261 41.3709C105.563 39.1149 103.935 36.2949 101.33 36.2949H26.7678C24.1628 36.2949 22.5347 39.1149 23.8372 41.3709L61.1182 105.944Z" fill="#057FFF"/>
<rect x="20.873" width="86.3485" height="21.8243" rx="4.74442" fill="#057FFF"/>
</svg>
