<svg width="224" height="22" viewBox="0 0 224 22" fill="none" xmlns="http://www.w3.org/2000/svg">
<path d="M8.05782 2.44995V20H4.34728V5.97195H4.24445L0.225419 8.49135V5.20071L4.57009 2.44995H8.05782ZM19.1102 20.3856C17.6362 20.3799 16.368 20.0171 15.3054 19.2973C14.2485 18.5775 13.4344 17.5349 12.8631 16.1695C12.2975 14.8041 12.0176 13.1616 12.0233 11.2421C12.0233 9.32829 12.3061 7.69725 12.8717 6.349C13.4429 5.00076 14.257 3.97529 15.3139 3.2726C16.3765 2.5642 17.6419 2.21 19.1102 2.21C20.5784 2.21 21.8409 2.5642 22.8978 3.2726C23.9604 3.981 24.7774 5.00933 25.3486 6.35757C25.9199 7.70011 26.2027 9.32829 26.197 11.2421C26.197 13.1674 25.9114 14.8127 25.3401 16.1781C24.7745 17.5434 23.9633 18.5861 22.9064 19.3059C21.8495 20.0257 20.5841 20.3856 19.1102 20.3856ZM19.1102 17.3092C20.1156 17.3092 20.9183 16.8036 21.5181 15.7924C22.118 14.7813 22.4151 13.2645 22.4094 11.2421C22.4094 9.911 22.2722 8.8027 21.998 7.9172C21.7295 7.0317 21.3468 6.36614 20.8497 5.92054C20.3584 5.47493 19.7786 5.25213 19.1102 5.25213C18.1104 5.25213 17.3106 5.75201 16.7107 6.75177C16.1109 7.75152 15.8081 9.24831 15.8024 11.2421C15.8024 12.5904 15.9366 13.7158 16.2051 14.6184C16.4794 15.5154 16.865 16.1895 17.362 16.6408C17.859 17.0864 18.4417 17.3092 19.1102 17.3092ZM28.4097 17.0077H48.6559V19.6139H28.4097V17.0077ZM36.928 12.6882H40.1134V18.3349H36.928V12.6882ZM36.9039 4.43529H39.7273V4.91792C39.7273 5.99579 39.5181 7.0093 39.0999 7.95847C38.6816 8.89155 38.0622 9.73614 37.2417 10.4923C36.4374 11.2484 35.448 11.8838 34.2736 12.3986C33.0992 12.9134 31.7398 13.2674 30.1954 13.4604L29.0371 10.9025C30.4045 10.7416 31.5789 10.4681 32.5603 10.082C33.5577 9.67984 34.3701 9.19721 34.9975 8.63415C35.641 8.07108 36.1156 7.47584 36.4213 6.84843C36.743 6.20493 36.9039 5.56142 36.9039 4.91792V4.43529ZM37.3141 4.43529H40.1375V4.91792C40.1375 5.56142 40.2903 6.20493 40.596 6.84843C40.9177 7.47584 41.3923 8.07108 42.0197 8.63415C42.6632 9.19721 43.4837 9.67984 44.4811 10.082C45.4786 10.4681 46.653 10.7416 48.0043 10.9025L46.846 13.4604C45.3016 13.2674 43.9422 12.9134 42.7678 12.3986C41.5934 11.8838 40.596 11.2484 39.7755 10.4923C38.9712 9.73614 38.3598 8.89155 37.9415 7.95847C37.5233 7.0093 37.3141 5.99579 37.3141 4.91792V4.43529ZM30.123 2.8185H46.8943V5.37642H30.123V2.8185ZM36.928 0.0916559H40.1134V3.85614H36.928V0.0916559Z" fill="#A900FF"/>
<path d="M57.6127 10.806H77.3521V12.4228H57.6127V10.806ZM66.4931 7.30692H68.4477V11.4816H66.4931V7.30692ZM60.0983 6.67951H75.0355V8.29631H60.0983V6.67951ZM60.0983 1.05691H74.8908V2.64958H62.077V7.64476H60.0983V1.05691ZM67.4583 13.9913C69.791 13.9913 71.6169 14.3372 72.9361 15.0289C74.2553 15.7046 74.9149 16.6699 74.9149 17.9247C74.9149 19.1795 74.2553 20.1448 72.9361 20.8205C71.6169 21.5122 69.791 21.8581 67.4583 21.8581C65.1256 21.8581 63.2916 21.5122 61.9564 20.8205C60.6372 20.1448 59.9776 19.1795 59.9776 17.9247C59.9776 16.6699 60.6372 15.7046 61.9564 15.0289C63.2916 14.3372 65.1256 13.9913 67.4583 13.9913ZM67.4342 15.5598C66.308 15.5598 65.3347 15.6564 64.5143 15.8494C63.7099 16.0264 63.0905 16.2918 62.6562 16.6457C62.2218 16.9836 62.0046 17.4099 62.0046 17.9247C62.0046 18.4234 62.2218 18.8497 62.6562 19.2037C63.0905 19.5576 63.7099 19.823 64.5143 20C65.3347 20.1931 66.308 20.2896 67.4342 20.2896C68.5925 20.2896 69.5738 20.1931 70.3782 20C71.1987 19.823 71.8261 19.5576 72.2604 19.2037C72.6948 18.8497 72.912 18.4234 72.912 17.9247C72.912 17.4099 72.6948 16.9836 72.2604 16.6457C71.8261 16.2918 71.1987 16.0264 70.3782 15.8494C69.5738 15.6564 68.5925 15.5598 67.4342 15.5598ZM94.7489 0.0433939H96.7518V16.1149H94.7489V0.0433939ZM96.1244 6.67951H99.9613V8.34457H96.1244V6.67951ZM83.1659 19.7587H97.7171V21.3996H83.1659V19.7587ZM83.1659 14.4739H85.1447V20.4102H83.1659V14.4739ZM85.8927 1.5878C86.9867 1.5878 87.96 1.82107 88.8126 2.28761C89.6653 2.73806 90.341 3.36547 90.8397 4.16985C91.3384 4.97423 91.5877 5.90731 91.5877 6.96908C91.5877 7.99869 91.3384 8.92372 90.8397 9.74419C90.341 10.5647 89.6653 11.2082 88.8126 11.6747C87.96 12.1251 86.9867 12.3504 85.8927 12.3504C84.8149 12.3504 83.8416 12.1251 82.9729 11.6747C82.1202 11.2082 81.4445 10.5647 80.9458 9.74419C80.4471 8.92372 80.1978 7.99869 80.1978 6.96908C80.1978 5.90731 80.4471 4.97423 80.9458 4.16985C81.4445 3.36547 82.1202 2.73806 82.9729 2.28761C83.8416 1.82107 84.8149 1.5878 85.8927 1.5878ZM85.8927 3.32525C85.1849 3.32525 84.5494 3.47809 83.9864 3.78375C83.4233 4.08941 82.9729 4.51573 82.635 5.06271C82.3133 5.60969 82.1524 6.24514 82.1524 6.96908C82.1524 7.67694 82.3133 8.30435 82.635 8.85133C82.9729 9.3983 83.4233 9.82462 83.9864 10.1303C84.5494 10.436 85.1849 10.5888 85.8927 10.5888C86.6006 10.5888 87.2361 10.436 87.7991 10.1303C88.3783 9.82462 88.8287 9.3983 89.1505 8.85133C89.4883 8.30435 89.6572 7.67694 89.6572 6.96908C89.6572 6.24514 89.4883 5.60969 89.1505 5.06271C88.8287 4.51573 88.3783 4.08941 87.7991 3.78375C87.2361 3.47809 86.6006 3.32525 85.8927 3.32525ZM123.735 0.0433939H125.738V11.6747H123.735V0.0433939ZM125.183 5.15924H128.947V6.8243H125.183V5.15924ZM109.811 9.28569H111.5C112.996 9.28569 114.308 9.2696 115.434 9.23743C116.56 9.20525 117.597 9.13286 118.547 9.02025C119.496 8.90763 120.453 8.7548 121.418 8.56175L121.66 10.2027C120.646 10.3957 119.649 10.5486 118.667 10.6612C117.702 10.7738 116.648 10.8542 115.506 10.9025C114.364 10.9347 113.029 10.9508 111.5 10.9508H109.811V9.28569ZM109.811 1.49127H119.391V3.10807H111.79V10.4199H109.811V1.49127ZM111.983 12.8571H113.962V15.5357H123.735V12.8571H125.738V21.5203H111.983V12.8571ZM113.962 17.1525V19.8793H123.735V17.1525H113.962ZM141.421 4.04919H147.695V5.69012H141.421V4.04919ZM141.421 8.7548H147.744V10.3957H141.421V8.7548ZM146.947 0.0675249H148.95V16.2114H146.947V0.0675249ZM134.93 19.7587H149.457V21.3996H134.93V19.7587ZM134.93 14.6428H136.933V20.5792H134.93V14.6428ZM132.058 1.5154H134.061V5.35228H139.949V1.5154H141.928V12.4952H132.058V1.5154ZM134.061 6.92082V10.8784H139.949V6.92082H134.061ZM167.988 0.0433939H169.967V21.8822H167.988V0.0433939ZM169.508 9.02025H173.538V10.7094H169.508V9.02025ZM153.075 3.54244H165.937V5.18337H153.075V3.54244ZM159.614 6.96908C160.644 6.96908 161.553 7.18627 162.341 7.62063C163.146 8.05499 163.773 8.65023 164.223 9.40635C164.69 10.1464 164.923 11.0071 164.923 11.9884C164.923 12.9697 164.69 13.8385 164.223 14.5946C163.773 15.3507 163.146 15.9459 162.341 16.3803C161.553 16.7986 160.644 17.0077 159.614 17.0077C158.585 17.0077 157.668 16.7986 156.863 16.3803C156.075 15.9459 155.448 15.3507 154.981 14.5946C154.515 13.8385 154.281 12.9697 154.281 11.9884C154.281 11.0071 154.515 10.1464 154.981 9.40635C155.448 8.65023 156.075 8.05499 156.863 7.62063C157.668 7.18627 158.585 6.96908 159.614 6.96908ZM159.614 8.63415C158.955 8.63415 158.368 8.77893 157.853 9.06851C157.338 9.35809 156.928 9.75223 156.622 10.2509C156.332 10.7497 156.188 11.3288 156.188 11.9884C156.188 12.648 156.332 13.2352 156.622 13.75C156.928 14.2487 157.338 14.6428 157.853 14.9324C158.368 15.2059 158.955 15.3427 159.614 15.3427C160.258 15.3427 160.837 15.2059 161.352 14.9324C161.867 14.6428 162.269 14.2487 162.558 13.75C162.864 13.2352 163.017 12.648 163.017 11.9884C163.017 11.3288 162.864 10.7497 162.558 10.2509C162.269 9.75223 161.867 9.35809 161.352 9.06851C160.837 8.77893 160.258 8.63415 159.614 8.63415ZM158.577 0.308838H160.58V4.26638H158.577V0.308838ZM183.985 7.86194H188.184V9.527H183.985V7.86194ZM179.931 2.09456H181.5V6.26928C181.5 7.3954 181.379 8.50545 181.138 9.5994C180.912 10.6934 180.575 11.723 180.124 12.6882C179.69 13.6535 179.159 14.5222 178.531 15.2944C177.904 16.0666 177.196 16.694 176.408 17.1766L175.153 15.6805C175.893 15.23 176.561 14.667 177.156 13.9913C177.751 13.3156 178.25 12.5595 178.652 11.723C179.07 10.8703 179.384 9.9855 179.593 9.06851C179.818 8.13543 179.931 7.20235 179.931 6.26928V2.09456ZM180.317 2.09456H181.862V6.19688C181.862 7.06561 181.958 7.94238 182.151 8.8272C182.36 9.69592 182.65 10.5325 183.02 11.3369C183.406 12.1251 183.881 12.8491 184.444 13.5087C185.007 14.1683 185.642 14.7152 186.35 15.1496L185.216 16.694C184.427 16.2114 183.728 15.6001 183.116 14.86C182.505 14.1039 181.99 13.2593 181.572 12.3262C181.154 11.3771 180.84 10.3796 180.631 9.33395C180.422 8.28826 180.317 7.24257 180.317 6.19688V2.09456ZM192.021 0.0433939H193.951V21.8822H192.021V0.0433939ZM187.581 0.501889H189.463V20.7722H187.581V0.501889ZM202.444 11.2886H204.422V17.804H202.444V11.2886ZM210.504 11.2886H212.506V17.804H210.504V11.2886ZM197.593 17.4179H217.381V19.083H197.593V17.4179ZM207.439 1.41888C208.983 1.41888 210.351 1.65215 211.541 2.11869C212.732 2.58523 213.665 3.23677 214.34 4.07333C215.032 4.90988 215.378 5.89926 215.378 7.04148C215.378 8.16761 215.032 9.15699 214.34 10.0096C213.665 10.8462 212.732 11.4977 211.541 11.9643C210.351 12.4147 208.983 12.6399 207.439 12.6399C205.911 12.6399 204.543 12.4147 203.337 11.9643C202.146 11.4977 201.213 10.8462 200.537 10.0096C199.862 9.15699 199.524 8.16761 199.524 7.04148C199.524 5.89926 199.862 4.90988 200.537 4.07333C201.213 3.23677 202.146 2.58523 203.337 2.11869C204.543 1.65215 205.911 1.41888 207.439 1.41888ZM207.439 3.01155C206.281 3.01155 205.251 3.18047 204.35 3.5183C203.449 3.85614 202.741 4.33073 202.226 4.94205C201.712 5.53729 201.454 6.2371 201.454 7.04148C201.454 7.84586 201.712 8.55371 202.226 9.16503C202.741 9.76027 203.449 10.2268 204.35 10.5647C205.251 10.9025 206.281 11.0714 207.439 11.0714C208.613 11.0714 209.651 10.9025 210.552 10.5647C211.453 10.2268 212.161 9.76027 212.675 9.16503C213.19 8.55371 213.448 7.84586 213.448 7.04148C213.448 6.2371 213.19 5.53729 212.675 4.94205C212.161 4.33073 211.453 3.85614 210.552 3.5183C209.651 3.18047 208.613 3.01155 207.439 3.01155ZM223.11 2.44995L222.939 15.064H220.951L220.779 2.44995H223.11ZM221.945 20.1371C221.522 20.1371 221.159 19.9857 220.856 19.6829C220.554 19.3801 220.402 19.0174 220.402 18.5946C220.402 18.1719 220.554 17.8091 220.856 17.5063C221.159 17.2035 221.522 17.0521 221.945 17.0521C222.368 17.0521 222.73 17.2035 223.033 17.5063C223.336 17.8091 223.487 18.1719 223.487 18.5946C223.487 18.8746 223.416 19.1316 223.273 19.3659C223.136 19.6001 222.95 19.7886 222.716 19.9314C222.488 20.0686 222.23 20.1371 221.945 20.1371Z" fill="#6A6A6A"/>
</svg>
